<svg xmlns="http://www.w3.org/2000/svg" viewBox="0 0 570.6 570.6"><path fill="#ff6" d="M285.3 570.6c-.3 0-.6-.3-.6-.6l-.5-44.5c.6-.1 1.2-.2 1.8-.2h.4l-.5 44.7c0 .3-.3.6-.6.6zm63.3-7.2c-.3 0-.5-.2-.6-.5l-6.4-26.8h.6c.5 0 .9.1 1.3.2l5.7 26.4c.1.3-.1.6-.5.7h-.1zm-121.6-27c.1 0 .3.1.4.1.7 0 1.5-.4 1.5-1.2 0-.4-.1-1.1-1.4-1.4h-.1l.7-3.3c.2.1.5.2.7.3.3.2.5.4.8.6.1.1.2.1.2.2l-4.2 17.7h-.2c-.6 0-1 .2-1.4.4l3-13.4zm66.3 11c-.3 0-.5-.2-.5-.5l-1.7-40.9.1-.7-.1-2.1h-.1l-2.2-54.5h-1.6v3.7h-.4c-1.7 0-2.9 1.6-3.2 2.3L283 397h-1.6l-2.7 41.8h-.4c-1.6 0-2.7 1.5-3.1 2.1l-.1.2.4 3.5.4.2c.1.1.3.1.4.2.5.3.9.4 1.1.7-.2 1 .1 1.8.4 2.4.1.3.3.6.4 1l-3.5 53.4c-.5.2-1 .4-1.6.5-.1 0-.3 0-.4-.1l2.4-55.1-1.6-.1-1.3 14.4h-.1l-.5 5.6h.2l-1.1 11.6h-.2l-.9 9.3.2.1-.5 5.3-.2-.1-.2 1.2-.7 7.1c-.5.2-1 .3-1.6.5-.1 0-.2 0-.4-.1l3.9-53-1.6-.2-3.1 25.6c-.2-.2-.5-.4-.7-.5-.7-.5-1.1-.8-1.2-1.4-.1-.2-.1-.5-.2-.6v-.1l4.2-41.4.2.1c.8.5 1.7 1.2 2.7 1.5l1 .4.6-7.6-.1-.2c-.5-.9-1.3-1.3-2.2-1.3-.4 0-.7.1-1.2.2l-.2.1-.1.1 3.9-38.5-1.6-.2-4.8 27c-.4-.5-1-.9-1.8-.9-.3 0-.5 0-.8.1l-.5.1-1.1 5.3.1.8.4.3c.6.5 1.5 1.2 2.5 1.6l-.4 2h-.2c-.6 0-1.1.2-1.6.5l-.4.3.2.9c.2.9.4 2.1 1.3 2.7l-.4 2.3c-.4.3-.8.7-.9 1.2l-.2.5.4.4c.1.1.2.2.3.2l-4.9 27.4c-.2-.2-.4-.3-.5-.4-.6-.5-.9-.8-1-1.3 0-.2-.1-.4-.2-.6l3.2-20.7-.2-.3c-.1-.1-.2-.2-.2-.3l-.9-1.2.4.2c.1.1.2.1.3.1l.9.4.8-4.8-1.4.5-.4.2-.1.4-5.6 26.9-.5-.5c-.6-.5-.9-.8-1-1.3 0-.2-.1-.4-.2-.6l2.4-12.8-1.6-.3.4-.5c-.1.1-.3.1-.5.2-.7.3-1.9.7-1.8 2.2 0 1 .5 1.5 1 1.8l-.1.4c-.1-.1-.2-.3-.3-.4-.6-.8-1.1-1.7-1.9-2.4.4-1.2 0-2.5-.4-3.2l10.1-46.3-1.5-.4-6.7 22.6h-.2c-1.5 0-2.3 1.1-2.4 3.2v.4l.3.2c.3.3.6.5 1 .8l-2 6.6h-.1c-.6.2-1.8.6-1.9 2v.6c-.3-.4-.6-.9-1-1.3.2-.5.3-1.1.2-1.7l-1.6-.1-1.2 3.7c-.4-.5-.9-.6-1.1-.6l-.9-.1v.8c-.3.2-.9.7-.6 1.7l.1.2.2.2c.3.2.6.4.9.4s.5-.1.6-.2l-1.4 4.2h-.2c-.4 0-.8.1-1.2.4l-.1.1-.1.1c-1.1 1.4-1.3 4.1-.6 6L226 476.8h-.1l-.2.5-1.6 4.8.2.3-4.9 14.9-.2-.2-.4 1.2-.6 1.9c-.7.2-1.4.4-2 .7h-.1l.3-1.1c.2 0 .3.1.5.1l.7.2.2-.7c0-.1.1-.2.1-.3l1-1.9-.9.3.8-2.7-.5-.3c-.1-.1-.3-.1-.4-.2l8.1-26.5c.2-.1.4-.1.6-.2l.4-.1.6-1.9c.6-.3 1.5-.9 1.4-2.3l-.1-.8h-.4l.5-1.6-1.2.8.4-1.2.9.1 10.4-34.3-1.5-.5-5.7 15.7c-.3-.6-.9-.8-1.2-.8l-.9-.1v.8h-.1c-.3.2-1 .7-.7 1.8l.1.2.2.2c.3.2.6.5 1 .5.3 0 .5-.1.6-.2.1 0 .1-.1.2-.1l-1.7 4.7h-.4c-.4 0-.8.1-1.2.3l-.1.1-.1.1c-1.2 1.5-1.5 4.4-.8 6.5l-13 36c-.7 0-1.3.1-2 .2l4.1-12.3c.7-.3 1.6-.9 1.6-2.4v-.8h-.4l32.4-95.9-1.5-.6-19.6 46.2c-.3-.5-.8-.7-1.1-.7l-.9-.2v.8c-.3.2-1 .6-.8 1.7l.1.2.2.2c.3.3.6.5 1 .5.3 0 .4-.1.6-.2l-1.7 4h-.4c-.3 0-.7.1-1 .3l-.1.1-.1.1c-1.2 1.3-1.7 4-1.1 6L209.8 471h-.2c-.5 0-1 0-1.4.1l4.4-11c.6-.2 1.6-.8 1.6-2.2v-.8h-.4l10.7-26.8-1.5-.6-7.4 16.1-.6-.1-1.4 3.1.6.1-2.9 6.3-.5-.4-2.8 6.1.6.2-5.8 12.7-.2-1.2-7.1 15.5c-.2-.2-.6-.4-1.1-.4l19.3-44.6.1.1.6-1.3 1.7-3.9-.2.2 1.9-4.5-1.5-.7-12 24.3h-.4c-.6 0-1.2.3-1.6.7s-.6 1-.6 1.6v.3l.2.2c.2.2.4.4.7.5l-3.4 7c-.4-.4-.9-.8-1.8-.8-.2 0-.5 0-.8.1l-.3.1-.2.2 6-12.9c.3.3.7.5 1.3.5h.4l.2-.1c.8-.5 2-2 1.9-3.3-.1-.7-.5-1.3-1.2-1.6l-.3-.1 30.5-65-1.4-.7-8.3 14.7c0-.4-.2-.8-.4-1.1-.2-.2-.6-.5-1.3-.5h-.8v.2l-.4-.1-.1.9c-.1.6 0 1.1.3 1.5s.9.6 1.6.6h.2L202 439.5h-.4c-.6 0-1.1.2-1.5.6s-.6.9-.6 1.5v.3l.2.2c.2.2.4.3.6.5l-3.4 6.1c-.3-.4-.8-.8-1.8-.8-.2 0-.4 0-.6.1h-.2l6-11.2c.3.3.7.5 1.3.5h.2l.2-.1c.8-.4 2-1.8 1.9-3 0-.7-.4-1.3-1.1-1.6l-.2-.1 2.8-5.1-1.4-.8-5.3 8.8v-.2l-1.2 2c-.2 0-.3-.1-.5-.1h-.5l-.2.5-.1.3c-.2.4-.4.9-.6 1.3l-.3.8.4.1-.4.7.1.2-21.2 35.4c-.4.4-.6.8-.8 1.3l-1.9 3.2c-.1.1-.2.2-.3.2l-.3.1-9.7 16c-.1-.6-.4-1.1-.7-1.5l10.3-18 .7.8.5-1 4.1-7.1-.8-.6.3-.5.9.4.9-1.6-1.2.1 1.2-2.1.5 1 3.3-5.8-1.2.1 15.7-27.3.6.7 3.2-5.6-1.4.7 1.9-3.3-1.4-.8-13.3 20.7c-.2-.2-.5-.3-.8-.3h-.2l-.5.1-.1.5c-.1.3-.3.8-.6 1.3-.5 1-1.1 2.2-.9 3.3l-24.3 37.8c-.4.4-.7.8-.9 1.4l-2.2 3.4c-.1.2-.3.3-.5.3-.1 0-.2 0-.3-.1-.3-.2-.4-.6-.2-.8l75.5-123.2-1.3-.9-42.5 58.9c-.2-.2-.5-.3-.8-.3h-.7l-.2.5c-.1.3-.3.7-.6 1.1-.5.9-1.2 2-1 3L158 466c-.4.3-.7.7-.9 1.3l-2.2 3c-.1.1-.2.2-.4.2-.1 0-.2 0-.3-.1-.2-.2-.3-.5-.1-.7l39-56.5-1.3-.9-21.3 27.8-.1-.9-3.5 4.5.6.3-4.9 6.4-.3-.6-8.4 10.9.2.3v.6l-10 13.1c0-.1-.1-.2-.2-.4.1-.7.2-1.4.2-2.3l8.5-11.6.4-.4 8.6-11.7h-.1l24.2-33-1.3-1-29.2 35.9c-.3-.5-.8-.9-1.7-1h-.3l-.2.2c-.6.5-1.7 2-1.5 3.3.1.5.3.9.7 1.2l-5.7 7c-.3-.6-.6-1.2-.7-1.8l-.1-.5-.5-.2 17.4-22.3c.1.1.1.2.2.3.3.4.8.6 1.3.6.8 0 1.5-.6 1.6-1.5v-.7l-.7-.2c-.1 0-.1-.1-.3-.1-.2-.1-.4-.2-.8-.3l49.3-63.1v1l.1.5 1 .2c.3.1.5.1.7.1s.4 0 .7-.1l1-.2.1-.5c.1-1 0-1.8-.5-2.5l-.2-.3h-2l-.2.3c-.3.4-.5.9-.5 1.4l-1.2-1-17.2 19.4c-.5 0-.9-.1-1.3-.1h-1l-.2.6c-.2.9-.1 1.5.1 2L157.9 430c-.2-.5-.7-.8-1.5-.9h-.3l-.2.2c-.6.4-1.7 1.8-1.6 3 0 .5.2.9.6 1.2l-5.5 6c-.2-.5-.4-1.1-.5-1.6v-.5l-.4-.2 17-19.5c0 .1.1.2.2.3.3.4.7.6 1.2.6.8 0 1.4-.5 1.5-1.3l.1-.7-.7-.2c-.1 0-.1-.1-.2-.1-.1-.1-.3-.2-.6-.3l8.9-10.2-1.2-1.1-21.2 22.1c-.4-.3-.7-.6-.9-.9l-.5-.9-.8.7c-.5.5-1.4 1.7-1.2 2.8.1.4.2.7.5 1l-.8.9.2.1-7 7.3c-.2-.1-.5-.2-.8-.2h-.3l-.5.1-.1.5c-.1.2-.1.4-.2.6-.1.3-.2.6-.3 1v.4l-3 3.1h-.1l-.3.3c-.1.1-.1.2-.1.2l-6.4 6.6s-.1.1-.3.1h-.3l-6.5 6.8c0-.1-.1-.2-.1-.4.2-.7.3-1.4.5-2.3L134 444c.1 0 1 .4 1 .4l10.2-11.1-.9-.4 17.4-18.9v1.3l2.8-3-1.1-.1 7.7-8.4-1.1-1.1-32.5 31.9h-.1c-.4-.3-.7-.6-.9-1v-.8l57.9-59.2v.2l-.2 1 1.1-.1h.6c.5 0 1 .1 1.6.2l.4.1 12.6-13.6-1.3-.3c-.6-.1-1.1-.2-1.7-.2h-.6l8.7-8.9.9-.2V351l2.6-2.7-1.7-.1h-.5l-.4-.1-.3.3c-1.4 1.2-2.6 2.3-4.5 2.7l-.4-.1-.4.3-14.1 11.7 1.9.2c.7.1 1.3.2 1.9.4L142 415.1c-.3-.3-.6-.6-.8-.9 0-.2.1-.5.1-.7l26.1-23.9-1.1-1.2-8.4 7-.1-.6-1.1.8-7.9 6.5.2.6-1.5 1.3-.3-.5-4.1 3.4s.2.6.3.6l-1.6 1.3h-.1c-.1 0-.3 0-.4.1l-.5.1-.1.3h-.1c-.2.1-.5.2-.8.5l-.2.3v.4L86 455.1c-.1.1-.2.1-.3.1-.2 0-.3-.1-.4-.2-.2-.2-.2-.5.1-.7l65.5-56.8.1.1 6.3-5.4v-.2l2.3-2-1-1.2-15.6 12.1c-.1-1-.4-2-.6-2.9 0-.3.1-.7.2-1v-.1l21.7-17.7c.2.3.4.7.7 1 .3.4.5.7.7 1.1l.2.4h3.2l8.1-7 .1-.2c.1-.2.2-.5.2-.7v-.2c-.1-1.4-.8-2.3-1.4-3-.1-.1-.2-.3-.3-.4l-.1-.2 20.7-16.9-1-1.3-13.5 9.4v-.2c0-1.2-.5-2-1-2.7l-.4-.6-1.7 1.1-9.6 6.3.4.7c.1.2.3.5.4.7.2.4.4.7.6 1.1l.2.4 1.4.1-23.3 16.2c-.1-.9-.2-1.8-.4-2.5.1-.3.1-.6.2-.9v-.1l3-2.2-.9-1.3-53 34.8c-.1 0-.2.1-.3.1h-.3l-.3.1-29.1 19c-.1.1-.2.1-.3.1-.2 0-.3-.1-.4-.2-.2-.2-.1-.5.1-.7l68.6-46.9.1.9 1.1-.7 8.5-5.8.1-.3c.1-.3.2-.6.2-1l1.4-1-.9-1.3-69.1 42.5c-.1.1-.2.1-.3.1-.2 0-.4-.1-.5-.3-.2-.3-.1-.7.2-.8l121.5-78.3-.8-1.4-109.5 59.4c-.1 0-.1.1-.2.1-.2 0-.4-.1-.4-.3-.1-.2 0-.5.2-.7l59.7-34-.8-1.4-93 47.1c-.1 0-.1.1-.2.1-.2 0-.4-.1-.5-.3s0-.5.2-.7l86.8-46.3-.7-1.4-109.8 51.5c-.1 0-.2.1-.3.1-.2 0-.4-.1-.5-.3-.1-.3 0-.7.3-.8l155-76.7-.7-1.5-139.1 56.2h-.2c-.2 0-.4-.1-.5-.3s0-.5.3-.6l91-39-.6-1.5-59.4 22.2H74l-.3-.1-32.9 12.2h-.2c-.2 0-.4-.1-.5-.3-.1-.3 0-.5.3-.6l90.1-35.5-.6-1.5-76.8 26h-.2c-.3 0-.5-.2-.6-.4-.1-.3.1-.7.4-.8l135.9-49.3-.5-1.5-119.9 33.6h-.1c-.2 0-.4-.2-.5-.4-.1-.3.1-.5.3-.6l65.8-19.9-.4-1.5-101.2 25.3H32c-.2 0-.4-.2-.5-.4-.1-.3.1-.5.4-.6l94.8-25.8-.4-1.6L7.9 349.2h-.1c-.3 0-.5-.2-.6-.5s.1-.7.5-.7l168.1-40.2-.3-1.6L27.3 330h-.1c-.2 0-.4-.2-.5-.4 0-.3.1-.5.4-.6l97.4-17.8-.2-1.6c-26.9 3.6-62.6 8.4-63 8.4 0 0-.1 0-.2-.1l-.2-.1-34.8 4.6H26c-.2 0-.4-.2-.4-.4 0-.3.1-.5.4-.6l95.8-14.6-.2-1.6c-38.7 4-80.5 8.3-80.8 8.3-.2 0-.5-.2-.5-.5s.2-.6.5-.7l143.4-17.8-.1-1.6c-48.8 2.3-124.3 6-124.7 6-.2 0-.4-.2-.4-.5s.2-.5.5-.5l68.5-4.7-.1-1.6-104.2 2.1c-.3 0-.5-.2-.5-.5s.2-.5.5-.5l98.2-4v-1.6L.6 285.9c-.3 0-.6-.3-.6-.6s.3-.6.6-.6l172.9-1.8v-1.6l-149.7-9.7c-.3 0-.5-.3-.5-.5 0-.3.2-.5.5-.5l98.9 4.3.1-1.6-63.1-5.8s-.1 0-.3-.1l-.2-.2-34.9-3.3c-.3 0-.5-.3-.4-.5 0-.3.2-.5.5-.5l96.7 7.1.2-1.6-80.5-9.9c-.3 0-.6-.3-.5-.7 0-.3.3-.5.6-.5.4 0 143.9 14.6 143.9 14.6l.2-1.6-122.9-21.9c-.3 0-.4-.3-.4-.6 0-.2.2-.4.5-.4.2 0 68 10.6 68 10.6l.3-1.6-3.7-.8s0-.1-.1-.2l-.1-.5-33.2-6.9-.2.6-64.9-13.4c-.3-.1-.4-.3-.4-.6 0-.2.2-.4.5-.4h.1l66.1 12.3v.1l.5.1 27.7 5.2.1-.2 2.3.4.3-1.6-9.6-2.3H122.5l.5-.3c.7-.5 1.4-.9 2.2-1.3l.6.1.1.1c.3.4.5.8.8 1.2l.3.4.5-.1h.2c.7 0 1.4.5 2.1.9.7.5 1.4.9 2.2.9.3 0 .7-.1 1-.3l.4-.2v-.5c0-.3 0-.6-.1-.9l43.7 9.5.4-1.5-45.2-13.4c1.8.1 3.6.2 5.3.3h.2l.4-.3c.6-.3 1.1-.6 1.7-.9l.8-.3.6 1c.1.2.2.3.3.5l.2.4h.6c.7 0 1.3.4 1.9.9.7.5 1.3 1 2.2 1 .3 0 .6-.1.8-.2l.4-.2v-.5c0-.6-.1-1.1-.4-1.4l-.1-.2-5.4-1.8-5.8-1.9-.4-.2-2-.7 1.9.2-.1-.9v-1.1l5.1 1.6.5-.3.9-.4.7 1.3.3.1 1.2.4.5-1.5-3.2-1.2-9-3.2h-.5c-.7-.1-1.4-.1-2.1-.2 0 0-.5-.4-.8-.5l.1-.4-4.8-1.7c-.1-.3-.2-.6-.3-.8-.2-.4-.4-.8-.3-1.4l.1-.9h-.9c-1.4.1-2.4.5-3.1 1.4l-16.4-5.9c-.1-.8-.2-1.7-.5-2.7l12.7 4.3c-.2.3-.5.8-.2 1.6l.1.2.2.2c.3.3.8.4 1.3.4.6 0 1.1-.2 1.4-.6.2-.2.3-.5.4-.9l37.4 12.6-.8.1.3 2.3 2.3-.3-.2-1.6 32.4 10.9.6-1.5-50.4-20.9c-.1-.3-.2-.5-.2-.7-.2-.4-.3-.7-.2-1.3l.1-.8.2.1.6-1.5-30.6-14c.4-.3.6-.7.8-1 .3-.4.4-.6.7-.8.2 0 .3 0 .5-.1l15.1 6.5.1.2.3.2 1.1.5.2-.1 7.6 3.3.7-1.5-39.9-19.7c.4-.3.7-.7 1-1.1s.5-.7.8-.8c.2 0 .4 0 .6-.1L116 202c.1.2.2.4.2.5l.3.6.6-.1c.2 0 .4-.1.6-.2l68 31.9.7-1.4-.6-.3c.1-.4 0-.7 0-1.2v-.2l-.1-.1c-.4-.6-1-.9-1.6-.9-.5 0-1 .2-1.4.6l-65.4-36.9c.4-.3.7-.6.9-.9.3-.4.5-.6.8-.7h.5l14.5 7.8c.1.2.1.3.2.5l.2.6.6-.1c.2 0 .4-.1.5-.1l7.9 4.2.8-1.4-28.9-17.3c.3-.3.5-.5.8-.6l.4-.2v-.3l4.7 2.7.4-.3c.1-.1.2-.1.2-.1h.5l14.3 8.2c.1.2.1.3.2.5l.2.6.6-.1c.2 0 .4-.1.5-.1l6 3.4.8-1.4-41.2-26.4c.3-.3.6-.5 1-.7l.4-.2v-.4l95.5 58.5.9-1.3-77.1-55.7c.3-.2.5-.4.8-.6l.4-.2v-.3l31.8 22 .9-1.3-43.2-33 .2-.7-1.2-.9c-.1-.5.1-.8.4-1.2 0 0 0-.1.1-.1l2.3 1.7V160.2l.6.2c.4.1.8.2 1.2.2.2 0 .5 0 .7-.1.2 0 .3-.1.5-.1l1.7 1.2c-.2.6-.1 1.4 0 2l.1.6.6.1h.5c.7 0 1.2-.3 1.4-.6 0 0 .1-.1.1-.2l31.3 22.9 1-1.3-51.9-42.3c0-.1.1-.2.1-.2.4.1.8.3 1.2.5.7.4 1.4.8 2.5.8h.7c.2 0 .4-.1.5-.1l1.8 1.4c-.3.7-.1 1.5-.1 2.2l.1.6.6.1c.2 0 .4.1.6.1.7 0 1.3-.3 1.6-.7l85.4 66.6 1-1.2-74-67.3v-.1c.3.1.6.3 1 .5.6.4 1.4.9 2.5.9h.4c.2 0 .3 0 .5-.1l1.6 1.4c-.3.6-.2 1.4-.1 2v.6l.6.1c.2.1.5.1.7.1.6 0 1.1-.2 1.4-.6l29.7 25.9 1.1-1.2-46.1-44.3-.1-.1c.3-.2.6-.3 1-.4l12.6 11.6h1c.2 0 .3 0 .5-.1l1.5 1.4c-.1.2-.2.4-.2.7l-.1.4 2 1.8.5-.4c.1-.1.2-.1.3-.2l27.4 25.4.4-.5v.7l.4.3c.9.6 2 1.3 3.6 1.3.3 0 .6 0 .9-.1l.3 2.1h1c1.1 0 1.8-.4 2.3-.8.2-.1.3-.2.5-.3L215 212l1.2-1.1-28.8-32.7h.5c.9 0 1.5-.3 2-.6.1-.1.2-.1.4-.2l.9-.4-23.2-27.9.5-.4-2.9-3.5-.6.2-8.4-10.2.5-.4-6.8-8.2-.3.6-6.2-7.4.4-.5-3.5-4.2v1l-.2-.2c0-.4-.1-.8-.2-1.1v-.2l-1.4-1.7v-.1l.3-.2-.3-.8c-.2-.4-.4-.7-.4-1.1l2.2 2.6h-.1l.7.8 5.4 6.2.1-.1 4.2 4.8h-.1l.7.8 6.3 7.3h.1l1.7 2v.2l.2.2 1.5 1.8h.2l9.5 11-.1.1.5.6 2.8 3.2v-.2l3.5 4.1.1.3 4.1 4.7 1.4-.8-.1-.3-21-26.9c.6-.5 1.4-1.2 1.6-2.3v-.1l-.1-.5 2 2.4c-.6.8-.9 2-.6 3.1.3 1 1 1.7 2 1.8h.2l.2-.1c.5-.2 1-.6 1.3-1.1l4 4.9c0 .2.1.3.1.5v.4l.3.2c.3.2.6.7.9 1.2l.6.9c.1.8.4 1.3.7 1.8.3.4.4.7.5 1.3v.4l.4.2c.2.1.3.5.4.8.3.7.8 1.8 2.1 1.8h.2l.8-.1v-.8l37.8 46.4 1.3-1-38.8-55.8c.6-.4 1.3-1 1.6-2v-.4l1.5 2.1c-.6.7-.9 1.8-.7 2.8s.9 1.6 1.8 1.8h.4c.5-.1.9-.4 1.2-.9l3.4 4.6v.8l.3.2c.3.2.5.6.7 1.1.1.3.3.6.5.9.1.8.3 1.3.6 1.7.2.4.4.7.4 1.2v.4l.3.2c.1.1.2.4.3.7.2.7.7 1.8 2 1.8h.8l.1-.8c0-1.1-.3-1.9-.6-2.6-.2-.4-.3-.7-.4-1.2v-.1l-10.7-16.2c1-.2 1.7-.7 2.2-1.6v-.1l1.7 2.4c-.1.1-.2.2-.2.3l-.3.4 2.6 3.8.5-.8 3.2 4.7v.8l.3.2c.3.2.5.6.7 1.1.1.3.3.6.5.9 0 .3.1.5.1.8v.1l2.6 3.7 1.4-.6c-.1-.5-.3-.9-.4-1.4l-.3-.9v-.1l-18.6-30.3c.9-.2 1.6-.6 2-1l51.5 80 1.4-.8-37.9-69.8c.8-.1 1.4-.4 1.8-.8l11.5 20.2 1.1-.6 1-.1-4.4-8.7-.4.4-3.9-7.8h.6l-.5-1.1-1.9-3.9h.4l-1.2-1.4c-.2-.3-.4-.5-.7-.8-.4-.5-.8-.9-1.1-1.4l-16.3-32.1c.6-.3 1.1-.7 1.5-1l19.1 35.8.2.7 2.8 5.3.1-.1 1.4 2.7-.1.1 4.5 8.4.2-2.4.4-.2-3.3-7.1c.1 0 .3-.1.5-.1l.2-.1.1-.1c.9-.8 1.4-1.8 1.6-3l27.3 55.2 1.5-.7-17.1-42.3c.1 0 .2 0 .3-.1h.2l.1-.1c1.2-1 1.8-2.4 1.8-4.2v-.2l-.3-.6c-.2-.5-.4-.9-.5-1.4l.6-.2-2.2-5.9.1-.1-.3-.6-1.9-5.2c.2 0 .5.1.7.1.6.1 1.2.2 1.8.2h.6l1.1 2.9-.8.4 3.8 9.5 1.5-.2v-.5l-.2-.6c-.3-.8-.7-1.7-.4-2.5l.1-.2-6.4-18.9c.8-.5 1.4-1.1 2.1-1.7l5.6 15.5.3 2.7.6-.1 16.2 44.8h-.4v.7c-.1 1.5.8 2 1.4 2.4.1 0 .1.1.2.1l4.5 12.3 1.5-.5-18.3-65c.7-.4 1.3-.9 1.9-1.3l3.6 11.9 1.5-.4-3-12c.1.1.3.1.4.2l.4.2.4-.2c.5-.3 1-.7 1.4-1l.6 2.1h.2l1.1 4 1.6-.4-4.5-20.8c.7.3 1.3.8 1.8 1.4l.3.5.6-.2c.3-.1.5-.1.7-.1h.4l16.4 68.7 1.6-.3-2-12.2c.9-.5 1.2-1.3 1.2-2-.1-1-.9-1.8-1.8-2l-6.6-41c.6.3 1.1.8 1.4 1.3l.3.5.6-.2c.2-.1.4-.1.6-.1h.4l.9 4.7 1.6-.3-1.2-8.7h.9l.1-.8c0-1.2-.5-2-1.4-2.4l-6.8-50.9c0-.1 0-.2.1-.3l.1-.2-1.2-9.2h.4c.4 0 .8 0 1.1-.1l2.1 13.6c-.3.3-.5.8-.4 1.5v.2l.1.2c.2.3.4.5.7.7l3.1 20.3-1-.1.7 4.7 3 19.3.8-.1h.1l.1.7c-.1.1-.1.1-.2.1l-.7.2 1 6.2.6.1h.3l.4 2.7 1.6-.2-2.4-21.7h1v-.8c0-1.3-.5-2.2-1.4-2.6l-5.7-55.6c0-.3.2-.6.5-.7.4 0 .6.2.7.5l17.8 143.4 1.6-.1-3.4-70.1 1 .1.1-.8c.1-1.2-.3-2.1-1.2-2.5l-2.5-51.3c0-.3.2-.5.5-.5s.5.2.5.5l4.7 68.5 1.6-.1-.4-20.5.6.2-.1-4.1-.6.1-.4-20 .6.3-.1-4.3h-.6l-.3-15c.4-.6.3-1.5 0-2.2l-.8-38.8c0-.3.2-.5.5-.5s.5.2.5.5l4 98.2h1.6l.3-30.2c.2 0 .5 0 .7-.2l.2-.1.1-.2c.4-.4.5-1.1.4-1.8s-.4-1.3-.9-1.6l-.2-.1h-.4l.2-22c.2 0 .4.1.6.1s.5 0 .8-.1l.3-.1.2-.3c.5-.8.5-1.7.1-2.5-.4-.7-1.1-1.1-1.9-1.2L284 45c.4-.7.4-1.6 0-2.3l.4-42.2c0-.3.3-.6.6-.6s.6.3.6.6l1.8 172.9h1.6l4.3-66.1h.1c.2 0 .4 0 .6-.1l.2-.1.1-.1c.4-.4.5-1 .5-1.7s-.3-1.3-.7-1.6l-.2-.1h-.3l1.3-20.1c.2.1.4.1.6.1h.6l.3-.1.2-.3c.5-.7.6-1.7.1-2.4-.3-.6-.9-1-1.6-1.2l1-14.9c.4-.6.4-1.5.1-2.2l2.5-38.7c0-.3.2-.5.5-.5s.5.2.5.5l-4.3 98.8 1.6.1 5.8-63.1c0-.1.1-.2.1-.3l.2-.2 3.3-34.9c0-.3.2-.5.5-.5s.5.3.5.5l-7.1 96.6 1.6.2 9.9-80.5c0-.3.3-.5.6-.5.4 0 .6.3.6.7l-11.3 111.7c0-.1-1-1.3-1-1.3l-.5 1.3c-.1.2-.3.3-.8.5-.4.2-.9.3-1.3.7l-.2.2-.2 2.7v.5l-.6 8.5.5.2c.3.1.5.2.8.3l.5.1.3-.4c.4-.6.9-1.2 1.3-1.8l-2.1 20.7 1.6.2 1.7-9.3c.3.5.8.8 1.6 1l.5.1.3-.4.3-.4 2.6-12.6-1.6 1.1c-.1.1-.3.2-.6.2-.4.1-.9.3-1.3.7L321.9 62c0-.2.2-.4.5-.4.4.1.5.3.5.6l-10.6 67.9 1.6.3 1.3-6.1.5.2.2-1 .4-1.9-.5-.3 9-43.4.6.1.9-4.3-.3-.3-.3-.3 4.7-22.8c.3-.3.5-.5.8-.5l.5-.1.1-.5c.1-.5.3-.9.6-1.1l-.8 4.1c-.5.6-.8 1.5-.9 2.5v.4l.3.3-12.9 69.6 1.6.3 3.4-14.3h.3c.6 0 1-.2 1.3-.3l.5-.2v-.5c0-.6-.3-1.3-1.3-1.9l11.2-47h1.2l.2-.2c.7-.8 1-2.2.7-3.3-.2-.6-.5-1.1-.9-1.4l5.9-24.6c.3-.3.6-.5.9-.6l.5-.1.1-.5c.2-.6.4-1 .8-1.3l-1 4.6c-.6.7-.9 1.5-1 2.6v.4s.3.3.4.3l-30.4 139.8 1.5.4 14.8-49.8h.4c.5 0 .8-.2 1.1-.3l.5-.2v-.5c0-.7-.4-1.3-1.1-1.8l12.6-42.5c.2 0 .4.1.6.1h.5l.2-.2c.7-.7 1.1-2 .8-3.1-.1-.6-.4-1-.7-1.4l6.6-22.3c.3-.3.6-.4.8-.5l.5-.1.1-.5c.2-.5.4-.8.6-1l-1.1 4c-.6.6-.9 1.4-1.1 2.4l-.1.4.3.3-18.9 68.9 1.5.5 19.7-60.2c0-.1.1-.2.2-.3l.2-.2 3.9-11.8c.3-.3.6-.4.8-.5l.5-.1.2-.5c.2-.5.4-.8.7-1l-1.2 3.9c-.6.6-1 1.3-1.2 2.3l-.1.4.3.3-20.4 66.4 1.5.5 27.5-76.3c.1-.2.3-.4.6-.4h.2c.3.1.5.5.4.8l-46.2 136.9 1.5.6 48.7-114.9c.1-.2.3-.3.5-.3h.2c.3.1.4.4.3.6l-25.5 63.8 1.5.6L391 45.3c.1-.2.2-.3.4-.3h.2c.2.1.4.4.2.6l-39 90.3 1.5.7L408 28c.1-.2.3-.3.5-.3.1 0 .2 0 .3.1.3.1.4.5.3.8l-73.4 156.6 1.4.7 73.7-130.7c.1-.2.3-.3.4-.3s.2 0 .3.1c.2.1.3.4.2.7l-46.8 87.2 1.4.8 21.1-35.1.1.1.4-.6 5-8.3h-.3l6.2-10.4c.1-.1.1-.2.3-.2l.3-.1 18.1-30c.1-.1.3-.2.4-.2s.2 0 .3.1c.2.1.3.4.2.7l-48.3 84 1.4.8L402.3 97c.5.2 1 .5 1.6.7L341 200.4l1.3.9 59.9-83c.4.2.8.5 1.3.7l-26.4 38.3 1.3.9 32.7-42.8h.1l.3-.2c.3-.2.6-.3.8-.5l2.1-1.1-1.1-.2 2.4-3.1-1.2.5 7.1-9.3c.1 0 .3.1.4.1.4.1.9.2 1.2.3l.1.1-2.3 3.2h-.1l-.2.3-1.5 2 .1.1-2.4 3.2-.3.3-1.8 2.4h.1l-30.5 41.6 1.3 1 41.9-51.4h.1l.3-.2c1.1-.6 2.4-1.1 3.8-1.4l-43.7 56c-1.2.4-2.1 1.1-2.5 1.9-.3.5-.4 1.1-.3 1.7l-3.9 5c.1-.4.2-.7.2-1.1.1-.4.2-.9.3-1.3l.2-.7-.7-.2c-.3-.1-.6-.1-.8-.1-.9 0-1.4.5-1.8.9-.3.3-.4.4-.6.4h-.2l-.2.1c-.1.1-.3.2-.4.2-.9.5-2 1.2-1.9 3.3v.2c.3.9 1 1.9 2.7 2.3l-21.5 27.5 1.2 1L374 183v.6c.3 1 1 1.8 2.1 2.2l.5.2 2.7-2.9.1-.2c.1-.5.3-1.1.4-1.6l.3-1.2.2-.7-.7-.3c-.3-.1-.6-.2-.9-.2-.8 0-1.3.4-1.6.7-.2.2-.3.3-.5.3l48.4-53.2h.1l.3-.2c1-.5 2.1-.9 3.4-1.1l-35.3 40.5.4 1.9 1.1-1.1 5.3-5.5v-.2l3.8-3.9h.2l.3-.2.2-.2v-.2l16.8-17.5.1.1.5-.4 3-3.1h-.3L435 125l.1.1.6-.5 6-6.2c.1 0 .3.1.4.1.4.1.9.3 1.1.5l.1.1-2.7 2.9c-.9 0-1.6.4-2 1.2l-.1.2v.2c0 .2 0 .4.1.6l-2.7 3h-1.3l-2.7 3 1.5-.2-33.9 36.6.7.7c0 .1 0 .1.1.2.2.3.5.7 1 .7.3 0 .6-.1.7-.4.2-.3.2-.7.1-1-.1-.1-.1-.2-.2-.3l1.7-1.6c.4.8 1.1 1.2 2 1.2.2 0 .5 0 .8-.1h.2l-6.4 6.6h-.1l-.5.1-.1.5v.2l-41 41.6 1.1 1.2 18-15.8.3.6c.3.4.9.7 1.5.7.9 0 1.5-.6 1.6-1.5v-.7l-.7-.1s-.1-.1-.2-.1c-.2-.1-.4-.3-.7-.5l17.7-15.5c.2.2.4.3.7.3s.5-.1.7-.3c.2-.3.3-.7.1-1 0-.1-.1-.2-.1-.2l1.5-1.3c.4.7 1 1.1 2 1.1h.8l.2-.2c.4-.4.5-1 .5-1.7s-.3-1.3-.7-1.6l.8-.7v.2h1.2c1.1 0 2-.2 2.7-.6l-4.1 3.8 1.1 1.2 26-21.6.4.5.7-.6c-.2.4-.4.9-.4 1.6v.2l.1.2c.1.1.1.3.2.4l-.2.2.1.1-12.7 11v-.1l-1 .8-3 2.6.1.1-3.6 3.1 1 1.2 35.1-27.4c.1.1.1.3.1.5.1 1 .4 1.8.7 2.5l-14.4 11.8-.1-.2-.9-.1c-.4 0-.9-.1-1.3-.1-1.5 0-2.4.6-2.7 1.8l-.1.3.1.2c.2.4.5.8.9 1.1l-55.4 45.1 1 1.3 65.2-45.4c0 .1.1.2.1.3 0 .9.2 1.6.5 2.3l-13.7 10-.1-.1-.8-.1c-.5-.1-1-.1-1.5-.1-1.6 0-2.1.9-2.3 1.6l-.1.3.1.3c.2.4.4.7.8 1.1l-5.3 3.8-.3 2.1 1.5-.9 3.4-2.2-.1-.1 8.5-5.6.1.1 12.5-8.1c0 .1 0 .2.1.3 0 .9.2 1.6.4 2.3l-14 9.6-.1-.1-.6-.1-.3-.1-.4.2-3.2 2.2.6.6-2.9 2 .9 1.3 9-5.5c.7.6 1.9 1.1 3 1.1h.2l-64 41.2.8 1.4 52.6-28.5c.6.6 1.7 1.1 2.7 1.2l-4.9 2.8.8 1.4 76.7-38.8.6.1c.2 0 .4.1.6.1 1.2 0 2-.7 2.2-1.9l12.9-6.6c.1 0 .1-.1.2-.1.2 0 .4.1.5.3s0 .5-.2.7l-33.7 18h-.1l-.4.2-1.6.9-.1.2-50.9 27.1.7 1.4 91.7-43 .7.1c.3.1.5.1.8.1 1.2 0 2-.7 2.3-2l14.3-6.7c.1 0 .2-.1.3-.1.2 0 .4.1.5.3.1.3 0 .7-.3.8l-37.2 18.4c-.2-.1-.4-.1-.6-.1h-.2l-.2.1c-.6.2-1.1.8-1.5 1.2L387 239l.7 1.5 122.1-49.3.6.2c.3.1.6.1.9.1 1 0 1.8-.6 2.1-1.7l13.5-5.4h.2c.2 0 .4.1.5.3.1.3 0 .5-.3.6l-35.1 15c-.2-.1-.3-.1-.5-.1h-.2l-.2.1c-.5.2-1.1.6-1.5 1.1l-53.6 23 .6 1.5 59.4-22.2h.4l.3.1 15.7-5.8.6.2c.3.1.7.2.9.2.6 0 1.6-.2 2.1-1.7l13.6-5h.2c.2 0 .4.1.5.3.1.3 0 .5-.3.6l-35.5 14c-.2-.1-.3-.1-.5-.1h-.2l-.2.1c-.5.2-1.1.6-1.5 1L440 228.2l.6 1.5 76.8-26h.2c.3 0 .5.2.6.4.1.3-.1.7-.4.8l-39.7 14.4c-.3-.1-.6-.2-1-.2h-.6l-.2.6c0 .1 0 .2-.1.2l-94.3 34.2.5 1.5L502.5 222h.1c.2 0 .4.2.5.4.1.3-.1.5-.3.6l-37.1 11.2c-.3-.1-.6-.2-.9-.2l-.6-.1-.2.6c0 .1 0 .1-.1.2l-26.9 8.1.4 1.5 52.4-13.1h.8l.1-.2 48-12h.1c.2 0 .4.2.5.4.1.3-.1.5-.3.6l-94.9 25.8.4 1.6 65-14.1h.8l.1-.2 52.6-11.4h.1c.3 0 .5.2.6.5s-.1.7-.5.7L514.8 234l.3-.3c.2-.3.1-.7-.1-1l-.2-.3h-.5c-.4 0-.9.2-1.1.6-.2.3-.1.7.1 1l.2.3h.1l-113.1 27.1c-.1-.1-.1-.2-.2-.3l-.3-.5-.5.2c-.5.1-1 .5-1.3 1.2l-3.4.8.3 1.6 98.5-15.8h.2l.6.1.1-.2 48.8-7.8h.1c.2 0 .4.2.5.4 0 .3-.1.5-.4.6l-44.6 8.1c0-.1.1-.1.1-.2.2-.3.1-.7-.1-1l-.2-.3h-.5c-.3 0-.8.2-1 .6-.2.3-.1.7.1 1l.2.2-51.3 9.4.2 1.6 17-2.3v.1l1-.1 30.3-4h.2l.6.1.1-.2 10.9-1.4-.4-.2c2-.3 3.2-.4 3.3-.4 0 0 .1 0 .2.1l.2.1 34.8-4.6h.1c.2 0 .4.2.4.4 0 .3-.1.5-.4.6l-44.8 6.8c.1-.1.1-.1.1-.2.2-.3.2-.7 0-1s-.4-.4-.8-.4-.8.2-1 .6c-.2.3-.2.7 0 1 .1.1.1.2.2.2l-49.6 7.6.2 1.6 30.8-3.2c0 .5.1 1 .3 1.4l.2.4 1.9.2-2.3.3c-.7-1.2-1.8-1.8-3.2-1.8-.4 0-.8 0-1.2.1l-.4.1-.2.3c-.3.6-.3 1.2-.1 1.7 0 .1.1.1.1.2l-21.3 2.6-.1-.9-2.3.4.1.8-46 5.7v-.1l-.8-.1c-.9-.1-1.4-.4-2.1-.8-.6-.3-1.3-.7-2.3-.9l-.5-.1-.3.4c-.2.2-.3.4-.5.6-.5.8-.9 1.1-1.5 1.1-.2 0-.5-.1-.9-.2l-.8-.3-.2.8c-.1.3-.1.5-.2.8l-8.8 1.1.1 1.6 74.3-3.6h-.2l-.2.3c-.3.5-.4 1.1-.2 1.6v.1l-17.6 1.2.1 1.6 21.6-.4.1.6h.8v.6l.1.5.4.2c.3.1.5.2.8.2s.6-.1.8-.2l.2-.1.1-.2c.3-.4.4-.9.3-1.5l20.6-.4c.1.5.3 1.1.6 1.6.1.2.1.4.1.6l-9.9.4v-.1h-.2l-.2-.8c0-.1 0-.2-.1-.2l-.1-.2-.2-.1c-.5-.3-1.1-.5-1.6-.5-.6 0-1.2.2-1.7.7l-1.4 1.3h.6v.2l-25.7 1.1v1.6l31.4.3c.1.5.3 1 .7 1.4.5.5 1.1.8 1.7.8.3 0 .6-.1.8-.2l.2-.1.1-.2c.3-.5.4-1 .3-1.7l22.5.2c.1.6.3 1.2.6 1.8.1.3.1.5.1.7l-11.1.1c0-.4-.1-.8-.2-1.3l-.1-.3-.2-.1c-.6-.4-1.2-.6-1.8-.6-.8 0-1.5.3-2 .9-.4.4-.6.9-.7 1.4l-94.1 1v1.6l28.2 1.8c1 .8 2.6 1.2 4 1.4-.6.4-.7 1-.7 1.3v.7l.7.1c.1 0 .1 0 .2.1.2.1.5.2.9.2.2 0 .4 0 .7-.1l.6-.2-.3-2.4h-1.1c.3-.2.6-.5.9-.7l33 2.1c.1.5.3 1 .6 1.3.4.5 1 .8 1.7.8.2 0 .5 0 .7-.1l.3-.1.2-.2c.3-.4.4-.9.4-1.5l20.6 1.3c.1.5.2 1.1.4 1.6.1.3.1.4 0 .6l-10.1-.4c0-.3 0-.7-.1-1.1l-.1-.3-.2-.2c-.6-.4-1.2-.6-1.8-.6-.7 0-1.4.3-1.9.8-.3.3-.5.7-.7 1.2l-26.4-1.2-.1 1.6 27.7 2.5.1.1.3.1.8 1.6-2.4-.2-.2.5c-.1.1-.1.3-.2.4l-24.3-1.8-.2 1.6 42.2 5.2c.2.3.3.6.5.9.3.4.5.9.7 1.3l-106.9-10.8-.2 1.6 87.8 15.6c.1.3.3.5.4.8.2.4.4.7.6 1.1l-34-5.3-.3 1.6 50.1 10.4v.7l1.2.3c-.2.3-.4.5-.7.6-.1 0-.7.1-.7.1l-.2.5-44.5-8.2-.3 1.6 61.7 14.8c0 .8-.2 1.6-.5 2.4l-112.7-24.5-.4 1.5 92.9 27.6c-.1.7-.2 1.4-.5 2l-44.2-12.2-.5 1.5 41.7 13.6-.3.1 2.1.7c0 .4-.1.8-.2 1.2l-.1.3s-.2.5-.2.6l-48.9-15v1.1c0 .7-.1 1.3-.2 1.9-.1.5-.1.9-.2 1.4L380 320.8l-.6 1.5 40.4 17.1c0 .5-.1 1-.2 1.5-.1.6-.2 1.1-.3 1.8v.5l74.2 33.9c-.2 0-.4-.1-.6-.1h-.5c-.8.1-1.4.3-1.9.6L445.4 358l-.3-.3-.1-.1-1.2-.5h-.5l-9.3-4-.7 1.5 77.6 38.4c-.3-.1-.6-.2-.9-.4-.5-.3-1.1-.6-1.9-.6h-.4c-.9.1-1.5.3-2.1.6l-48.8-22.9c-.7-.7-1.4-1-2.2-1l-17.7-8.3v-.2l-.4-.1c-.2-.1-.3-.4-.5-.8-.3-.7-.8-1.7-2-1.7h-.3l-.8.1s.1.8.1.9l-8.9-4.2c.5-.5.9-1 1-1.6l.1-.8-.8-.1c-.5-.1-1-.1-1.5-.1-1.2 0-2.1.3-2.6.9L390 338.3c0-.7-.2-1.3-.6-1.8-.7-.9-2.1-1.4-3.6-1.4-.4 0-.7 0-1.1.1l-.5.1-.1.5c-.1.5 0 1 .2 1.3l.3-.3-.3.5 101.1 57c-.3-.1-.6-.1-.9-.1h-.2c-.8 0-1.4.2-1.9.5l-43.6-23.4c-.6-.7-1.3-1-2-1.1l-9.4-5.1-.8 1.4 2.6 1.6.4.3 2.7 1.6v-.1l7.7 4.6v.1l.5.4 3.6 2.2.2-.1 1.3.8h-.3l13.2 8 .1-.2 11.7 7-.3.1 6 3.6.3-.1 1.8 1.1-.3.1 4.4 2.6c-.3-.1-.6-.2-1-.2-.9 0-1.5.2-2 .4l-42.9-24.7c-.6-.7-1.2-1.1-2-1.1l-7.5-4.3-.8 1.4 13.1 8.4c0 1.1-.1 2.1-.3 2.9L370.1 341l-.9 1.3 52.3 37.7c-.1 1-.2 1.8-.4 2.5l-7.3-5-.1-.1-.5-.3-.3.5c-.2.1-.4.1-.5.3l-1 .6 7.2 5.5c-.1 1-.2 1.8-.5 2.5l-5.4-4-1 1.3 1.6 1.3c.2.8.3 1.6.2 2.4l-.1.9h.9c.1 0 .3.1.5.2.3.1.7.3 1.2.3.2 0 .4 0 .6-.1.4-.1.6-.3.8-.5l2.6 2.1c-.2.2-.3.4-.5.5-.3.4-.4.5-.9.5H418.3c-.1 0-.2 0-.4-.2-.3-.2-.7-.4-1.2-.4-.4 0-.7.1-1.2.3l-.2.1-6.2-4.8c.4-.3.7-.9.6-1.6v-.1l-.1-.1c-.7-1.4-.9-2.8-.4-3.9l.4-.9-.9-.2h-.2c-.3-.1-.6-.4-.9-.6-.6-.5-1.3-1.1-2.5-1.1-.4 0-.9.1-1.4.3l-.2.1-.1.1c-.7.7-1.1 1.6-1.3 2.7l-3.9-3.1c-.3-.4-.7-.9-1.4-1.1l-25.6-20-1 1.2 20 18.1c-.2 0-.4.1-.7.2l-.2.1-.1.1c-.7.6-1.1 1.4-1.4 2.4l-.1.4 2.4 2.3c-1.2.5-1.7 1.4-2 2.2-.1.2-.2.3-.2.5l-.3.5 3 3.1.6-.5c.4-.4.6-.9.6-1.5v-.2c-.4-1-.5-2-.3-2.8l.3.3 1.7 1.6.5-.4c.5-.4.8-1 .7-1.6v-.1l-.1-.1c-.4-1-.6-2-.4-2.8l3.7 3.4c.1.7.2 1.5.1 2.2l-.2.8.9.1c.1 0 .2.1.4.2.3.2.7.4 1.2.4h.4c.3-.1.6-.2.7-.4l2.2 2c-.2.1-.3.3-.4.4-.3.3-.4.4-.8.4h-.2c-.2 0-.2 0-.4-.2-.3-.2-.7-.4-1.2-.4-.3 0-.6.1-1 .2l-.4.2-.1.4c0 .1 0 .3-.1.4v.4l.3.4 1.3 1.2c-.2.1-.3.3-.4.4-.3.3-.4.4-.7.4H399.2c-.2 0-.2 0-.4-.2-.3-.2-.7-.5-1.3-.5-.3 0-.6.1-.9.2l-.4.1-.1.5-.1.5.2.2c-1.3.4-1.9 1.4-2.3 2.2l-11.3-11 .4-.1-.5-2.7-2.4.4-24.5-24-1.2 1.1 27 30.7c-1.2.3-1.8 1.3-2.2 2l-.2.8.8.9h-.8l.3.3c-.7.4-1.1.9-1.6 1.4-.1.2-.3.4-.5.5l-.5.5 7.8 9.9c-1.1.2-1.8 1-2.4 1.7-.2.2-.4.5-.6.7L353.1 374l-1.3 1 6.4 9.2v.6l.2.2c.1.1.3.2.4.2l11.4 16.3c-1 .2-1.7.9-2.3 1.5l-.6.6-.3.4h-.9l.1.2c-.7.3-1.2.8-1.7 1.3l-.5.5-.5.4.3.4c-1.3.2-1.8.9-2.2 1.4l-.3.3c-.1-.1-.1-.2-.2-.2-.3-.4-.6-.9-1.2-1.2l-22.5-34.9-1.4.8 8.2 15.1h-.8l-.2.3c-.4.7-.7 1.8-.6 2.8v.2l1 2 1-.4c.6-.2 1.3-.5 1.8-.9l4.6 8.5c-1.1.1-1.7.7-2 1.2l-.3.3-.4.4 3.2 6.2.2.1c.3.1.6.2.9.2h.3c.2 0 .4-.1.6-.1-.3.3-.7.6-1 1l-.3.4 6.9 13.6.8-.9c.1-.1.2-.2.4-.3.3.1.6.4.8 1 0 .1-.1.1-.1.2l-.3-.6-1.4.8 18 35.6c-.1.1-.2.2-.3.4-.2.3-.2.6-.1 1l.2.5h.6c.2 0 .4.1.7.1l9.4 18.6-.3.2.1.5c.1.4.4 1 1.3 1.5l1.5 3 .2 1.1.4.1 3.9 7.7v.1c-.2.7-.3 1.5 0 2.7.3.8.8 1.2 1.2 1.4.3.2.5.3.6.5-.1.1-.2.3-.4.5l-.2.2-6.2-11.6c0-.1.1-.2.1-.3v-.2l-.1-.2c-.2-.5-.6-.8-1-1l-17.5-32.8v-.1l-.1-.3-1.9-3.6-.1.1-10.1-18.9-1.4.7 21.7 46.4c-.2.1-.3.2-.4.4-.2.3-.2.6-.1 1l.2.5h.6c.2 0 .5.1.8.2l9.7 20.6-.4.2.1.5c.1.5.4 1.1 1.4 1.6l1.6 3.3.2 1.2.4.1 4 8.5v.1c-.2.8-.4 1.6-.1 2.9.3.9.8 1.3 1.3 1.6.3.2.5.4.6.6-.1.2-.2.3-.5.6l-.3.3-6.4-12.9c0-.1.1-.2.1-.3v-.2l-.1-.2c-.2-.5-.6-.9-1-1.1l-17.9-36.3c.1-1 0-2.2-.6-3.1-.3-.4-.8-.7-1.3-.7l-39.9-80.6-1.5.7 32.1 79.4c-.1.1-.3.2-.4.4-.2.3-.2.6-.2.9l.1.5.5.1c.2 0 .4.1.7.2l7.8 19.4-.3.2.1.5c.1.5.3 1.1 1.2 1.6l1.3 3.1.1 1.1.4.1 3.2 8v.1c-.2.7-.5 1.5-.2 2.7.2.8.7 1.2 1.1 1.5.3.2.4.4.5.6l-.4.4c-.1.1-.2.1-.3.2l-5.2-12.1c0-.1.1-.2.1-.3v-.2l-.1-.2c-.1-.5-.5-.9-.9-1.1l-14.6-34.2c.2-.9.1-2.1-.4-2.9-.3-.4-.7-.7-1.1-.8l-8.9-20.8-1.5.6 22.2 59.3c.1.2 0 .3 0 .4l-.4.8.7.3 3 8.1v.1c-.2.7-.5 1.5-.3 2.7.2.8.7 1.3 1.1 1.6.3.2.4.4.5.6l-.4.4c-.1.1-.2.1-.3.2l-4.8-12.2c0-.1.1-.2.1-.3l.1-.2v-.2c-.1-.5-.5-.9-.8-1.1l-13.6-34.6c.2-.9.2-2.1-.4-2.9-.3-.4-.7-.7-1.1-.8l-7.5-19.1-1.5.5 26 76.8c.1.3-.1.7-.4.8h-.2c-.3 0-.5-.2-.6-.4l-25.8-71.2c.2-.4.3-1 .1-1.9l-.2-.6h-.8l-6.9-18.9c.2-.1.4-.2.5-.4.6-.6.5-1.4.5-2v-.9l-.8.1c-.2-.2-.5-.6-1.1-.6-.1 0-.3 0-.4.1l-14.3-39.5-1.5.5L349 502.1c.1.3-.1.5-.3.6h-.1c-.2 0-.4-.2-.5-.4l-19.9-65.7-1.5.4 17.3 69.5c-.6.2-1.1.4-1.6.6l-2.7-9.8h.1l-1.1-4.2h-.1l-13.5-49.5-1.6.4 18.2 83.8c-.7.2-1.3.4-1.9.7l-2.7-11.3c.3-.2.5-.5.6-.9.2-1-.3-2.4-1-2.9l-.3-.2h-.3l-28.4-118.6-1.6.3L324.9 511c-.6.1-1.1.3-1.6.5l-1.9-10.4c.3-.2.4-.5.5-.8.3-.9-.1-2.3-.8-2.8l-.3-.2h-.2l-9.3-51.2-1.6.3 4.6 34.5-.2-.1.2 1.6 1 7.8.2.1 1.8 13.7h-.2l.1 1.1.9 7.1c-.6.1-1.1.3-1.6.4L315 502c.3-.2.5-.5.6-.8.3-.9 0-2.3-.7-2.8l-.3-.2h-.2l-8-52.6-.9.3c-.9.3-1.6 1-1.7 1.8-.1.5-.1 1.5 1 2.6l.2.2h.4l5 48.5c-.4-.2-.9-.3-1.5-.3h-.1l-.3.1-13.9-112.3-1.6.1 2.3 47.3c-.6.3-1 .8-1.2 1.4-.2.5-.3 1.5.8 2.6l.2.2.4.1 2.1 44.6c-.4-.2-.8-.3-1.3-.3H296l-2.7-39.7h-.2c-.1-.8-.2-1.7-.1-2.7l.1-.6-.5-.2c-.1-.1-.3-.1-.4-.1l-1-.3-.1 1 .2 8.2.2.3c.2.3.3.6.4 1l1.1 53.5-.6.3.1 3.8.6-.6.8 40.8c-.1 0-.3.2-.6.2zm-24.2-104.9c-.4.4-.7.8-.8 1.2l-.1.5.4.3c.2.2.5.3.8.4l1 .3.3-4.1-1.6 1.4zm.9-7.4c-.7 0-1.4.2-1.8.6l-.4.3.2.9c.2 1 .5 2.2 1.5 2.8l1.1.8.4-5.3h-.8l-.2-.1zm57.2-1.5c-.2 0-.5 0-.7.1l-.8.2.8 3.2 1-.7c.6-.4.7-1.1.5-2.1l-.1-.6-.7-.1zm-72.8-4.3c-.7 0-1.3.2-1.8.7-.7.8-.8 2-.8 2.8v.4l.3.2c.4.3.8.6 1.3.9l.9.5 1-5.5h-.9zm5-6.5c.1.1.2.1.3.2l1 .6.3-2-.8-.1c-.1 0-.2 0-.3-.1l-.5 1.4zm61.2-9.2l.8 3.3 1-1.4c.3-.5.4-1.1.4-1.6v-.9l-.8.1h-.1l-1.3.5zm-97.4-1.9c-.1.6.1 1.1.4 1.5s.9.6 1.5.6h.5l.6-.1.1-.6c.1-.9 0-1.5-.4-1.9-.2-.2-.6-.5-1.3-.5h-.3l-.6.1v.2l-.4-.1-.1.8zm-30.3-8c-.5 0-1 0-1.4.1l-.6.1-.1.6c-.2.9 0 1.5.1 2l.5 1.5 3.1-4.2-1.6-.1zm161.5-9.5c-.6 1.2-.8 3.6.5 4.7l.4.3.9-.4c.5-.2 1-.4 1.4-.7l.7-.4-3.3-4.7-.6 1.2zm-91.6-11.4c-2 .3-2.5 1.7-2.9 2.7-.2.5-.4.9-.6 1.2l-.3.3v.3c.1 1 .5 1.5.8 2 .2.3.4.6.5 1l.1.6.6.1c.2 0 .3 0 .5.1l.8.2 1.6-8.6-1.1.1zm132.2 4.3c.1.7.1 1.2-.1 1.7l-.2.8.9.1c.1 0 .2.1.4.2.3.2.7.4 1.3.4h.4c.7-.2 1-.6 1.1-.8l.4-.6-4.4-3.8.2 2zm-136.4-11l-1.6 5 .9.2c.5.1.9.3 1.4.6l1.2.6 1.4-6.3-.3-.3c-.2-.2-.4-.5-.4-1.3l.1-.8h-1.6l-.5 1.6-.6.7zm147.3-2.4l.1.6 3.3 2.6.5-.7c.1-.1.2-.3.2-.4l.3-.6-4.9-3.4.5 1.9zm9.2-9.4v.2l.1.3 3.9 2.5-1.1-2.3c-.1-.1-.1-.3-.2-.4l-.1-.3-2.9-1.6.3 1.6zm2.9-5.3l-.8.1v.8c0 .4.1.7.1 1l.1.3 4.4 2.6-1.5-2.7c-.1-.2-.2-.3-.2-.5-.3-.6-.7-1.7-2-1.7 0 .1 0 .1-.1.1zm-203.1 3.9l2.9-.5.5-.1.1-.5c0-.2.1-.4.1-.6l.1-2.2-3.7 3.9zm143.5-3.8c-.1.7.2 1.3.6 1.9.5.5 1.1.8 1.8.8h.5l1.5-.3-4.3-3.9-.1 1.5zm-137.2 1.4l1.6.1c.8.1 1.5.2 2.3.4l.5.2 1-1.4v-.2c.2-.9-.1-1.9-.9-2.9l-.6-.7-3.9 4.5zm-7.3-2.3c-.2.2-.5.4-.7.7l-1 .9 1.6.5c.3.1.5.2.8.2.1 0 .3 0 .5-.1h.3l.2-.2.6-.7V358l-.8.1h-1.3l-.2.1zm137.6-3.3c-1.5 0-2.2.6-2.6 1.1l-.3.5 2.5 3 .5-.2c.6-.2 1.1-.6 1.5-1.1l.1-.2v-.2c0-1-.4-1.5-.7-1.9-.1-.2-.2-.3-.3-.4l-.2-.5-.5-.1zm56.6-1.8c-.5 0-.9.1-1.3.2l-1.6.6 3.7 2.2.4-.3c.5-.4.9-1 1-1.5l.2-.8-.8-.2c-.5-.2-1.1-.2-1.6-.2zm16-5.7h-.3l-.8.1.1.8c0 .3.1.6.2.9l.1.3 4.3 2.1-1.5-2.4c-.1-.1-.1-.3-.2-.4-.3-.4-.7-1.4-1.9-1.4zm-59.8-8.6l-.2-1.6c.9.1 1.8.2 2.6.6l.9.5.4-1.6-.5-.4-6-3.4v1.2s-.1 0-.1-.1c-.5-.5-1.2-1.1-2.3-1.1-.4 0-.9.1-1.4.3h-.1l-.1.1-7.8-4.8-.9 1.3 1.1.8h.1c.9.5 1.8 1 2.4 1.8l.1.1 6.1 4.7.4-.9c.2-.4.4-.7.5-1l4.8 3.5zm-7.7-8.9l1.9.9h1.3l-.4-1.1c-.4-1-.8-1.8-1.3-2.5l-1.3.6c-.5-.4-1-.9-2-1l-2.1-.1 1.4 1.5c.9.8 1.8 1.3 2.5 1.7zm6.1-7.1c-.2.4-.4.8-.6 1.4l-.2.6 9.1 5.1-.8-2.1c-.5-1.2-1-2.1-1.5-2.9l-.1-.2-3.4-1.5-.1-.3-1.8-.8-.6.7zm-11.4-2.4c.1.1.3.3.6.4l1 .3v-1.3c0-.4 0-1-.4-1.4-.2-.2-.4-.4-.9-.4h-.3l-.6.1-.1 2.1.7.2zm-34.1-34.9c-.5 1-.9 2-1.2 3.3v.2l.5 1.1c.7 1.4 1.4 2.8 2.5 4l.1.2.2.1c.7.2 1.4.3 2.2.3h.5l.2-.5c.3-.6.4-1.3.6-2 .1-.7.2-1.3.5-1.7l.3-.6-.6-.4c-1.1-.8-1.5-1.7-1.3-3.2V285l-.6-.2c-.6-.2-1.2-.2-1.9-.2-.3 0-.7 0-1.1-.1l-.6-.1-.3 1.1zm125-.9c-.7.4-.8 1.1-.8 1.5v.7h.7c.1 0 .1 0 .3.1s.5.2.8.2.5-.1.8-.2l.6-.2-.4-2.5h-.7c-.3 0-.5 0-.7.1.3-.3.7-.6 1.1-1l1.6-1.5-6.9.3-.3 1.5c1.2.6 2.6.8 3.9 1zm-123.2-2c.3.6.9 1.1 1.7 1.3l1.2.4-.2-1.3c0-.2-.1-.4-.1-.7v-.7h-.7c-.4 0-.7-.1-1-.1l-1.7-.4.8 1.5zm119.3-5.7l.2 2.1h2.3l-.3-2.3-2.2.2zm-70.5-7.7l.5.9c.2.3.4.6.6.8l.3.2 6.4-.9-.2-.1 4-.5.1-.6c.1-.6 0-1.2-.2-1.9l-.2-.7-11.3 2.8zm13.3-6.6l.3 1.6c.6 0 1.3-.1 1.9-.1.7 0 1.4-.1 2.1-.1h.3l.2-.2c.4-.4.6-.9.7-1.5l.2-1.2-5.7 1.5zm-119.6-8.9l-.4.4c-.1.1-.2.2-.3.4l-.9 1.1 1.4.3c.2 0 .3.2.5.6.3.6.8 1.4 2 1.4h.8l.1-.5c.1-.4.8-.5 1.8-.5.2 0 .5 0 .7-.1l3-.4-2.8-1.2c-1.7-.7-3.4-1.4-5.6-1.4l-.3-.1zm-134.2-2.4l-.1 1.6 1.1.2.3-1.6-1-.2h-.3zm101.8-3.5c-.1.3-.1.6-.1 1v.5l3.8 2.2.5-.1 1.6-.4-5.4-4.2-.4 1zm-21.6-1.2c.1.5.2 1 .4 1.5l.1.3 1.4.6.4-.3c.4-.3.6-.7.8-1.2l.1-.6-3.4-1.9.2 1.6zm-39.1-8.6l2.3-.2-.1-1.4-2.4-1.1.2 2.7zm212-50.8l.2.5c.3.6 1 1.1 1.8 1.1.5 0 .9-.2 1.2-.5s.4-.7.4-1.1v-.7l-.7-.1-.2-.2c-.2-.1-.4-.3-.8-.4l-.5-.1-1.4 1.5zm4.1-11.8c-.4.3-.7.6-.9 1l1.3 1 .7-.7-1.1-1.3zm-131.2-20.2l.9-2.3c.3-.8.1-1.8-.6-2.4l-2.1-2.1 1.8 6.8zm-10.1-19.1l.2 2.7 2-.1-.7-2.6h-1.5zM271 547.2c-.3 0-.5-.2-.5-.5l1.8-40.9c.4 0 .8-.1 1.2-.1h.6l-2.7 41c.1.3-.1.5-.4.5zm-7.6-.6c-.3 0-.5-.3-.5-.5l3-40.8h1.8v.3l.3-.1-.5 5.2c0 .1-.1.2-.1.3l-.2.2-3.3 34.9c0 .4-.2.5-.5.5zM322 545c-.2 0-.4-.2-.4-.4l-3.8-25c.6 0 1.1.1 1.6.3l3.2 24.6c0 .3-.2.5-.4.6l-.2-.1zm7.5-1.2c-.2 0-.4-.2-.5-.4l-4.5-24.8h.2c.5 0 1 .1 1.4.2l3.9 24.5c0 .3-.1.5-.4.6l-.1-.1zm79.3-1.4c-.2 0-.4-.1-.5-.3l-1.2-2.4c.3.2.7.3.9.5.3.1.5.2.7.3-.1.6 0 1.2.1 1.9zm-57.5-3.3c-.2 0-.4-.2-.5-.4l-6.6-24.4h.6c.3 0 .7 0 1 .1l6 24c.1.3-.1.5-.4.6l-.1.1zm54.7-1.9c-.1 0-.1-.1-.2-.1l-2.1-4.3.3-.3c.3-.2.5-.4.8-.6l2.3 5c-.1.2-.2.2-.4.3h-.7zm-148.1-6.8c-.3 0-.6-.3-.6-.7l.6-5.5h.3c.4 0 .7 0 1.1-.1l-.7 5.7c-.1.3-.4.6-.7.6zm120.8-.1c-.2 0-.3-.1-.4-.3l-.8-2.1c.2.2.5.3.7.4l.6.3c-.2.6-.2 1.1-.1 1.7zm-139.8-12.5h.3c.5 0 1.2-.3 1.4-.8l-2.6 12.6c-.5 0-.9.1-1.3.3l2.2-12.1zm146.9 9.7c-.2 0-.3-.1-.4-.3l-.9-2c.2.1.5.3.7.3l.6.3c-.1.5-.1 1.1 0 1.7zm-215.7-1.2c-.2-.7-.6-1.3-1-1.7l9.6-20.5.1.1c.5.3 1.1.7 1.7.9l-10.4 21.2zm59.6-2.3c.2 0 .4 0 .6.1l.7.1.2-.7c.1-.3.3-.6.5-1 .5-1 1.3-2.4.2-3.9l-.1-.1-.1-.1c-.2-.1-.5-.2-.7-.3l6.4-29.6c.9-.4 1.8-.6 2.8-.7.1 0 .1.1.2.1l-8.7 36.4c-.8.2-1.5.6-2.1.9-.1 0-.1.1-.2.1l.3-1.3zm146.7 1.2l-1.6-4c.1-.1.2-.1.3-.2.2-.2.5-.3.7-.5l1.7 4.7c-.1.1-.2.1-.3.1h-.7l-.1-.1zm-157.1-12.1c.1 0 .3.1.4.1.5 0 1.1-.3 1.3-.7l-3.7 12.3h-.3c-.4 0-.8.1-1.1.2l3.4-11.9zm90.5-4.2l.7-.1h.2c.3 0 .5 0 .8.1l1.6 15.1h-1c-.1 0-.2.1-.3.1l-2-15.2zm-97.1 2.1c.1.1.3.1.5.1.5 0 1.1-.2 1.3-.7l-4 12.2h-.3c-.4 0-.7.1-1 .2l3.5-11.8zm170.7 11.5l-1.7-4c.1-.1.2-.2.3-.2.2-.2.5-.4.7-.5l1.9 4.6c-.1.1-.2.2-.3.2h-.7c-.1-.1-.2-.1-.2-.1zm-98.7 0h-.5l-.7-66.1.4 2.4.4.2c.1.1.3.1.5.2.6.2 1 .4 1.2.8-.1 1.1.2 1.9.6 2.6.2.4.3.7.5 1.1l-.6 58.2c-.7.2-1.2.4-1.8.6zm121.3-4.4c-.2 0-.3-.1-.4-.3l-1-2c.2.1.5.2.7.3.3.1.5.2.6.2-.1.6-.1 1.2.1 1.8zm-165.3-1.5c0-.3-.2-1-1.3-1.2l.5-2.9c.2.1.4.1.6.2.2.2.5.4.7.6l.2.2-.7 3.1zm-34.4-2.9c-.3-.2-.6-.4-1.1-.4h-.2l5.8-17.3c.2.3.5.6.8.8.1.2.3.4.4.7l-5.7 16.2zm196.9-.4l-2-3.8c.1-.1.2-.2.3-.2.2-.2.4-.4.7-.5l2.2 4.4c-.1.1-.2.2-.3.2l-.7.1c-.1-.2-.2-.2-.2-.2zm-182-1.3c0-.4-.1-1-1.2-1.3l.8-2.9c.2.1.4.2.6.2l.6.6.2.2-1 3.2zm39.6-.6c-.2-.3-.4-.6-.4-1h.6l-.2 1zm-46.2-1.4c0-.4-.1-1-1.2-1.3l.9-2.9c.2.1.4.2.5.3l.6.6.2.2-1 3.1zm-28.4-.2c-.2-.6-.5-1-.9-1.4l8.2-19 .1.1c.3.2.6.3.9.5l.5.2h.1l-8.9 19.6zm61.7-.9c-.3 0-.5-.3-.5-.6l.8-5h1.1l-.9 5.1c0 .3-.2.5-.5.5zm-140.1-.4c-.1 0-.3 0-.4-.1-.3-.2-.3-.6-.1-.8l11-14.1c-.1.3-.1.6 0 1 0 .5.1 1 .2 1.4l-2.9 3.5h-.5c-.7 0-1.3.4-1.7 1-.4.7-.6 1.5-.4 2.2l-4.7 5.8c-.2 0-.3.1-.5.1zm133.6-.8c-.1 0-.2 0-.2-.1l-.4-.2h-.1l.2-1.2.2-.6 1-5.2h-.1l5-27c.3-.1.6-.2.9-.4l.4-.1.1-.4c.2-.6.3-1.5 0-2.4l-.2-.5h-.4l.4-1.9h-.1l.1-.5h.7c.3 0 .7 0 1-.1l.3-.1-1.1 5.4s.5.3.6.4l-7 33.7c-.1 0-.7.3-.7.3l-.1.4c0 .3-.2.5-.5.5zm57.4-1.8c-.2 0-.4-.1-.7-.1h-.1s-.2.1-.3.1l-1-13.9h.6c.3 0 .6 0 .8.1l.7 13.8zm161.4-2.4c-.6-.2-1.3-.3-2-.3l-6.8-8.3c.3 0 .6-.1 1-.3.2-.1.4-.2.6-.4l7.2 9.3zm-237.8-1.7c.2 0 .3.1.5.1l.7.2.2-.7c.1-.2.3-.5.5-.9.5-.9 1.4-2.2.4-3.6l-.1-.1-.1-.1-.6-.3 7.4-26.7c.8-.3 1.6-.5 2.6-.5l.1.1-9.8 33c-.7.2-1.4.5-2 .7h-.1l.3-1.2zm-54.9-1.2c-.2-.6-.5-1.1-.7-1.4l9.8-18.3c.4.3.9.7 1.5.9l-10.6 18.8zm261.1-2c-.5-.2-1.1-.3-1.6-.4l-5.5-8c.3 0 .5-.1.8-.2.2-.1.4-.2.5-.3l5.8 8.9zm-165.9-3c-.6-.2-.8-.5-.9-1 0-.5.2-1.1.3-1.8.3-1.3.6-2.6 0-3.9l-.2-.5h-.5l.3-2.8c.7 0 1.3-.1 1.8-.2l.3-.1.1-.2-1.2 10.5zm-134.3-.3c-.1 0-.2 0-.3-.1-.2-.2-.3-.5-.1-.7l9.6-13v.7c0 .5.1.9.2 1.2l-2.5 3.3h-.3c-.6 0-1.2.4-1.6 1s-.5 1.4-.4 2l-4.2 5.5c-.1.1-.2.1-.4.1zm306.4-1c-.5-.2-1.1-.3-1.6-.4l-5.7-7.9c.3 0 .5-.1.8-.2.2-.1.4-.2.5-.3l6 8.8zm-18.5-.2c-.2 0-.4-.1-.5-.3l-13.5-20.9c.5-.5.7-1.2.8-2l13.7 22.3c.2.3.1.7-.2.8-.1.1-.2.1-.3.1zM185 490.9c.3.5.5.7.5 1.2l-.1.1c-.5.6-.9 1.1-1.6 1.3l1.2-2.6zm263.9.7c-.2-.2-.4-.5-.7-.7l-8.7-10.7c.2 0 .5-.1.8-.3l.1-.1.1-.1c.2-.3.4-.6.4-.9l9 11.5c-.4.3-.6.7-.9 1 0 .2 0 .3-.1.3zm-197.4-.1c-.1-.2-.2-.4-.3-.7h.4l-.1.7zm-50.2-.5c-.2-.2-.6-.3-1-.3l6.1-15.4c.2.3.4.5.7.7l.3.6-6.1 14.4zm-12.3-3c0-.5-.1-.9-.1-1.4v-.6l-.6-.1c-.3-.1-.5-.1-.8-.1h-.2l7.5-16c-.2.9-.3 1.9-.2 3.1v.3l.3.2c.3.3.7.5 1 .6l-6.9 14zm230.4-1.2c-.1-.2-.3-.4-.5-.6l-7.1-10.4c.2 0 .4-.1.6-.2l.1-.1.1-.1c.2-.2.3-.4.4-.7l7.2 11-.8.8v.3zm-293.6-.1c-.1-.2-.1-.3-.2-.5.1-.7.2-1.6.3-2.5l9.7-12.4c.1 0 .2 0 .2.1.6.2 1.2.4 1.5.7v.6l-11.5 14zm269.4-3.2c-.2 0-.3-.1-.4-.3l-11.3-19.8c.4-.4.6-1 .8-1.6l11.4 21c.1.2 0 .5-.2.7h-.3zm30-.7c-.1-.2-.3-.4-.6-.6l-7.4-10.2c.2 0 .4-.1.6-.2l.1-.1.1-.1c.2-.2.3-.4.4-.7l7.5 10.8c-.3.3-.6.6-.8.9.2.2.1.2.1.2zm-314.1-1.5c-.1 0-.2 0-.3-.1-.2-.2-.2-.5 0-.7l10.6-12.2v.7c0 .5 0 .9.1 1.3l-2.8 3h-.5c-.6 0-1.2.4-1.6 1-.3.5-.6 1.2-.5 1.9l-4.6 5.1c-.1-.1-.3 0-.4 0zm340.9-.4c-.5-.1-1.1-.2-1.6-.2l-6.4-7.3c.2 0 .5-.1.8-.2.2-.1.3-.2.5-.3l6.7 8zm-187.8-.5l-.3-.3c.1 0 .3-.1.5-.1-.1.2-.1.4-.2.4zm171.9-4.3c.2 0 .4 0 .6-.1l.4-.1.2-.4c.1-.3.3-.6.4-.9l1.4 1.7h-.3c-.7 0-1.2.3-1.6.9l-1.1-1.1zM254 477.2c-.5-.2-.6-.5-.6-.8.1-.5.2-1 .4-1.6.3-1.2.7-2.4.2-3.6l-.2-.5h-.4l.4-2.4h.4c.4 0 .8 0 1.2-.1l.3-.1-1.7 9.1zm-148.5-1.1c-.1 0-.2 0-.3-.1-.2-.2-.2-.5 0-.7l11-11.9c0 .2-.1.4-.1.7 0 .5 0 .9.1 1.3l-2.9 3h-.5c-.6 0-1.2.3-1.6.9s-.6 1.3-.5 1.9l-4.8 4.9h-.4zm306.1-2.7c-.2 0-.3-.1-.4-.2l-.9-1.3-.7.8-.7-1h1.3l-7.8-11.4-.9.4-12.6-18.4c.1-.5.1-1 0-1.4v-.2l-1-1.4-.2-.1-.9-.3h-.3l-10.1-14.7.7-.4-.5-.7-.8-1.2c.8-.2 1.6-.4 2.2-.8l15.6 23.7-.1.1.2.5 1.4 2.1 3.7 5.7v-.4l13 19.8s.1.1.1.3v.2l-.2.2c0 .1 0 .1-.1.1zm-228.7-4.2c.2.3.3.6.3 1l-.1.1c-.5.5-.8.8-1.4 1l1.2-2.1zm258.6 1c-.1-.2-.3-.4-.6-.5l-8.2-9.5c.2-.1.4-.1.6-.3l.1-.1.1-.1c.2-.2.3-.5.4-.7l8.4 10.1c-.3.3-.5.6-.7.9-.1.1-.1.2-.1.2zm-27.2-2.1h.8l.2-.3c.1-.2.3-.5.4-.7l1 1.4h-.3c-.6 0-1.1.3-1.4.7l-.7-1.1zm18.3.4c-.1 0-.2 0-.2-.1s.1-.2.2-.3l.3.4h-.3zm-53.5-31.7c1-.1 1.9-.4 2.6-.9l16.2 26.4c-.3.5-.4 1.2 0 2.2l.1.3.2.1c.5.3 1 .4 1.5.5l-.1.5c-.2.7-.2 1.6-.3 2.4l-20.2-31.5zm-192.3 29.6v-1.6l-.6-.2c-.3-.1-.6-.1-.8-.1l7.4-13.8c-.2.7-.2 1.5-.2 2.4v.3l.2.2c.3.2.6.4.8.6l-6.8 12.2zm225-20.2c0-1.3 0-3.3-2.5-3.5h-.3l-12.3-15.1c.2-.1.4-.3.6-.4.7-.5 1.4-1 2.2-1.4l7.3 9.3c-.6 0-1.3.1-2 .7l-.4.3.1.5c.5 1.9 2 2.9 4.4 2.9.4 0 .8 0 1.3-.1l16.7 21.4c-.2.1-.4.2-.5.2l-.6.2.1.7c.1.8.3 1.5.5 2.1v.1l-14.6-17.9zM62.7 463.4c-.2 0-.4-.1-.5-.2-.2-.3-.2-.6.1-.9l66.4-54.1-.1.3c-.1.4-.4.6-.8.9-.6.5-1.4 1.1-1.5 2.3v.3l.2.2c.2.3.4.7.6 1.1l-1.8 1.4h-.2c-.1 0-.3 0-.4.1l-.5.1-.1.4h-.1c-.2.1-.6.2-.8.5l-.2.3v.5l-59.7 46.6c-.3.2-.5.2-.6.2zm66.1-1.3c0-.1-.1-.2-.1-.4.2-.7.3-1.4.4-2.3l9.5-10.8c.1 0 .1 0 .2.1.5.2 1 .4 1.3.6 0 .2 0 .4-.1.5l-11.2 12.3zm-17.3-2.1c-.2 0-.3-.1-.4-.2-.2-.2-.2-.6 0-.9l17.3-17.7c1.3-.2 2-.9 2.7-1.5s1.3-1.2 2.4-1.2h.1l-8 7.8c-.3-.2-.6-.3-1-.3h-.3l-.5.1-.1.5c-.1.2-.1.5-.2.7-.2.5-.3 1-.4 1.5l-3.4 3.4h-.1l-.3.3c-.1.1-.1.2-.2.3l-7.1 7c-.3.2-.4.2-.5.2zm347.9-.3c-.2 0-.3-.1-.4-.2l-6.8-6.6c.2-.3.4-.4.8-.5h.2c.2 0 .3.1.6.2.1 0 .1.1.2.1l5.9 6.1c.2.2.2.6 0 .9-.2-.1-.4 0-.5 0zm-95.5-30.6c.9-.1 1.6-.3 2.3-.6l13.5 25c-.3.5-.4 1.1-.1 2l.1.3.2.1c.4.3.9.4 1.3.5l-.1.4c-.2.6-.3 1.3-.3 2l-16.9-29.7zm65.7 27.6l-1.2-1.6-3-3.4c.2-.2.4-.3.7-.4h.1c.2 0 .3.1.5.2.1 0 .1.1.2.1l3.7 4.4.2-.8 1 1.3.2 1.4c0 .1 0 .3-.1.4 0 0-.1.1-.2.1l-.4.1-1.7-1.8zm-36.2-17.4c.1-1.2.1-3.1-2.2-3.4h-.3l-2.8-3.8c1.1.9 2.7.9 3.3.9h.6l14.2 20.4c-.1.1-.3.1-.4.2l-.6.2v.7c0 .6.2 1.2.3 1.7l-12.1-16.9zm43 14.8c-.1 0-.3-.1-.3-.2l-5.9-6.4c.2-.2.4-.3.7-.4h.1c.2 0 .3.1.5.2.1 0 .1.1.2.1l5.1 5.8c.2.2.2.5 0 .7-.1.1-.2.2-.4.2zm22.1-4.2c.1 0 .2-.1.3-.1s.1.1.2.1c.5.4 1.1.8 1.8 1.1 0 .2-.2.4-.4.6l-1.9-1.7zm29.3-2c.1-.1.3-.2.4-.2.1.1.2.1.3.2.6.4 1.3.8 2 1 0 .3-.2.5-.5.8l-2.2-1.8zm-24.6-3.2c.1 0 .2-.1.3-.1s.1.1.2.1c.5.4 1.1.8 1.8 1 0 .2-.2.4-.4.6l-1.9-1.6zm-57.1-15.1v-.1l-.2-.3-2.6-3-.1.1-11.5-13.3c.2-.1 1-.7 1.2-.9l.7-.5.5-.3 6.8 8.2-.7.1 3.3 4s.6-.1.7-.1l15.9 19.1c-.1.1-.3.1-.4.2l-.6.2.1.6c.1.6.3 1.2.5 1.6l-13.6-15.6zm37.4 6.5c.1-.1.1-.3.2-.4l.1-.3-.1-.3c0-.1-.1-.1-.1-.2l-.1-.1-.1-.1v-.1l-.2-.4c-.6-1.1-1.5-1.9-2.3-2.6-.3-.3-.7-.6-1-1l-.3-.3h-.5c-1.6 0-2.2-1-3.1-2.7-.2-.4-.4-.7-.6-1.1l-.1-.2-.2-.1c-.7-.4-1.9-.8-3.3-.8l-1.4-1.3c.1-.2.1-.4.2-.6.2-.3.3-.5.5-.7l-1-1.2s-.5.3-.7.4l-9.5-8.7.2 1.5-4.6-4.3 1-.3-9.3-8.5c.8-.2 1.7-.4 2.3-.8L431 421l-.2.1 2.8 2.7c0 .1-.1.3-.1.5l-.1.5.4.3c.4.3.7.4 1 .4.1 0 .3 0 .4-.1l9 8.7.2.1c.1 0 .2.1.2.1.1 0 .1 0 .2.1l5.6 5.4c.2.2.2.4 0 .7l-.8 1.1 1.4.2h1.1l.5.4c.4.9.4 1.8.4 2.7l-9.5-8.8zm26.9-1.8c.1-.2.1-.3.2-.5l.1-.3-.1-.3c-.8-1.6-2-2.6-3.2-3.5-.4-.3-.8-.6-1.2-1l-.3-.3h-.9c-1.6 0-2.4-1.3-3.4-2.7-.2-.4-.5-.8-.7-1.1l-.1-.2-.2-.1c-.9-.4-2.2-.6-3.3-.6h-.3l-1.7-1.4c.1-.2.1-.5.1-.7.2-.3.3-.6.5-.8.2-.3.3-.5.5-.8l2.4 1.9c0 .2-.1.4-.1.6v.5l.5.2c.4.2.7.3 1 .3.2 0 .4 0 .5-.1l14.7 12-.1.4c-.2.8 0 1.6.5 2.3.7.9 2.1 1.5 3.7 1.5.3 0 .6 0 .9-.1l.6.5v.1c.5 1 .7 2 .7 3l-11.3-8.8zm-22.5-2.9c.1-.1.1-.3.2-.5l.1-.3-.1-.3c-.7-1.5-1.8-2.5-2.8-3.4-.3-.3-.7-.6-1-1l-.3-.3h-.7c-1.5 0-2.2-1-3.1-2.6-.2-.4-.4-.7-.6-1.1l-.1-.2-.2-.1c-.7-.3-1.9-.7-3.3-.7l-1.5-1.3c.1-.2.1-.4.2-.6.2-.3.3-.5.5-.7s.3-.4.5-.7l2 1.8c0 .1-.1.3-.1.5l-.1.5.4.3c.4.2.7.3 1 .3.1 0 .3 0 .4-.1l12.9 11.7-.1.3c-.2.8-.1 1.6.4 2.2.7 1 2.1 1.5 3.7 1.5h.5l.5.4c.4.9.5 1.7.5 2.6l-9.8-8.2zM414 415.6c1-.2 2-.3 2.7-.9l22.5 23c-.4.2-.8.5-1.2.7-.1.1-.3.2-.4.2l-23.6-23zm-342 22c-.2 0-.3-.1-.4-.2-.2-.2-.1-.5.1-.7l63.5-46.2c-.1.3-.4.5-.8.8-.6.4-1.3 1-1.5 2.1v.3l.2.3c.2.3.3.6.4 1l-1.7 1.2h-.5l-.5.1-.1.3h-.1c-.2.1-.6.1-.8.4l-.3.2v.4l-57.2 39.8c-.1.2-.2.2-.3.2zm44.9-.7c-.1 0-.3-.1-.3-.2-.2-.2-.2-.5 0-.7l16.7-15.4c1.2-.1 1.9-.7 2.6-1.3.6-.5 1.2-.9 2.1-.9h.1l-7.6 6.6c-.3-.2-.6-.3-1-.3h-.7l-.2.5c-.1.2-.2.4-.2.6-.2.4-.4.9-.4 1.3l-3.3 2.9h-.1l-.3.3c-.1.1-.1.2-.2.2l-6.9 6.1c0 .3-.1.3-.3.3zm280.2-25.5c.8-.1 1.7-.2 2.4-.6l19.5 22.1c-.4.2-.7.4-1.1.5l-.4.2-20.4-22.2zm-22.2 18.9c.1 0 .1 0 0 0 .5.1.9.5 1.1 1-.1.1-.1.2-.2.3l-.9-1.3zm5.6-8.7c.2-.1.4-.2.5-.3.7-.4 1.3-.8 2-1.2l6.1 8.8c-.6 0-1.2.1-1.8.6l-.4.3.1.5c.1.3.1.5.2.7l-6.7-9.4zm95.6 7.4c.1-.1.2-.1.3-.2.1 0 .1.1.2.1.5.3 1.2.7 1.9.9 0 .2-.1.4-.3.6l-2.1-1.4zm-16.4-12c.1-.1.1-.3.1-.5l.1-.3-.1-.3c-.7-1.2-1.5-1.9-2.3-2.6l-.4-.4-.5.3c-.2.1-.5.3-.7.6l-.3-.2c0-.4.1-.8.1-1.1l.1-.9-.9.1h-.3c-1.3 0-2-.9-2.9-2.2l-.5-.7-.7.5c-.2.1-.3.2-.4.3l-2.8-2h-.2l-1.6-1.2v-.1l-.4-.4-.9-.7c.4-.2.9-.4 1.4-.5l.2-.1.1-.1.3.2.3-.6 2.1 1.6v.7l.9.7h.5c.2 0 .4 0 .5-.1l13.5 10.3-1 .1 1.1.8.2.9c.4 1.3 1.9 2.3 3.9 2.3.3 0 .7 0 1-.1l.5.4c.5.8.6 1.7.7 2.6l-10.7-7.3zm51.1 1.7c-.1 0-.1 0-.2-.1l-5.8-3.3c.4-.2.8-.4 1-.7l5.3 3.2c.2.1.3.4.2.7-.1.1-.3.2-.5.2zm-138.9-2.6c.3.1.6.4.9.9 0 .1-.1.1-.1.2l-.8-1.1zm-6.3-.2c.1 0 .1 0 0 0 .2 0 .3 0 .5-.1 1.5-.2 1.7-1.5 1.8-2.2l.4.7c-.2.2-.4.4-.6.5-.6.5-1.2 1.1-1.7 1.7l-.4-.6zm128.7-6.6c.4-.3.8-.6 1.1-1l6.7 4h-.3l.2.9c0 .1 0 .1-.1.3v.1l-7.6-4.3zm-3.7 4.3c-.7 0-1.6-.1-2.1-.8.1-.2.3-.3.6-.5l1.9 1.2c-.1.1-.3.1-.4.1zm-23-.3c-.7 0-1.5-.2-2-.8.1-.1.3-.2.5-.3l1.5 1.1zm-29.8-4.4c1-.5 1.7-1.2 2.3-2l2.7 2.2c-.2.4-.4.9-.6 1.4l-.1.3.1.3c.1.2.2.5.4.7.3.5.5 1 .7 1.6l-5.5-4.5zm76.8 3.1c-.1 0-.1 0-.2-.1l-5.9-3.2c.4-.2.8-.4 1-.7l5.4 3c.2.1.3.4.2.7-.1.2-.3.3-.5.3zm-103.5-1c-1.1-1.4-2.4-3-2.5-4.6l4.8 4.9c-.1 0-.3.1-.4.1-.5.1-.9.2-1.3.2-.3-.2-.4-.4-.6-.6zm-20.1-.9c-.9-1.3-1.9-2.7-1.9-4.2l3.8 4.6-.5.1c-.3 0-.7.1-1 .1-.2-.2-.3-.4-.4-.6zm28.2-3.7c.9-.4 1.5-1 2.1-1.7l2.3 2.1-.6 1.2-.1.3.1.3c.1.2.2.5.3.7.2.4.4.8.5 1.2l-4.6-4.1zm-287.7 3.5c-.4-.7-.9-1.3-1.8-1.8l-.5-.3 3.2-2.6c.2 1.3.5 2.4.9 3.3l-1.8 1.4zm410.3-.5c-.1 0-.2 0-.3-.1l-6.7-3.2c.5-.2.9-.5 1.2-.9l6 3c.3.1.4.5.3.8s-.3.4-.5.4zm-60.5-.3V407.3l1.6 1c-.4.2-.8.6-1.1.9l-.1.1-.4-.2zm-22.2-.3c0-.5 0-1 .1-1.5l1.3.9c-.4.2-.7.5-1 .8l-.4-.2zm-104.7-.3c.2-.3.3-.7.4-1l.3.5c-.2.1-.6.5-.7.5zm40.2-1.5c-.9-1.3-1.9-2.7-2.1-4.1l4 4.5h-.3c-.4.1-.8.1-1.2.1-.1-.1-.3-.3-.4-.5zm103.3-3.9c.4-.3.7-.7 1.1-1l6.8 3.8h-.3l.2.9c0 .1 0 .1-.1.3v.1l-7.7-4.1zm-29.7-2c.5-.3 1-.5 1.6-.7l.2-.1.1-.1 6.3 4-.2.2c-.4.3-.8.6-1.1 1l-6.9-4.3zm-20.6-.3c.4-.2.9-.4 1.4-.6l.2-.1.1-.1 5.4 3.9-.1.1c-.4.2-.7.5-1 .8l-6-4zm75.4-.1c.5-.4.8-.8 1.2-1.2l7.9 3.9-.5.1.3.9v.4l-8.9-4.1zm-87.9 2.8c0-.2-.1-.5 0-.8l.4.3c-.2.2-.3.4-.4.5zm-18.1-2.3v-.4l.2.2c-.1 0-.2.1-.2.2zm17.4-2.9v.2l-5.2-3.8h.1l-1.4-1.1-6.1-4.5-.1.1-.2-.1v-.1c0-.8-.1-1.5-.2-2.4 0-.1.1-.3.1-.4l4.7 3.6.1-.7.3.2-.3.5 2.4 1.9c-.1.4-.1.8.1 1.4l.2.5h.7l.5.1.3-.4c.2-.2.4-.4.6-.7l2.5 1.9-.3.5.5.4.9.7c-.5.9-.3 1.7 0 2.3l-.2-.1zm-29.9-1c-1-1.2-2.2-2.5-2.4-3.9l4.3 4.2c-.1 0-.2 0-.3.1-.4.1-.8.2-1.2.2-.1-.3-.2-.4-.4-.6zm37.8-12.1c-.1-.8-.2-1.7-.4-2.6 0-.2.1-.4.1-.6l8.4 5.4c-.1.4 0 .9.2 1.5l.2.5h.5c.3 0 .5.1.9.4s1 .7 1.8.7h.5c.1 0 .2-.1.3-.1l2.5 1.6c-.6 1.2 0 2.1.4 2.7l-15.4-9.5zm-17.8-.3c-.1-.7-.1-1.5-.2-2.3 0-.1.1-.3.1-.4l7.4 5.3c-.1.4-.1.8.1 1.4l.2.5h.5c.3 0 .4.1.7.4.4.3.9.7 1.8.7h.4c.1 0 .2-.1.3-.1l2.1 1.5c-.5.9-.2 1.7.1 2.3l-13.5-9.3zm100 7.2h-.2l-6.2-2.7c.4-.2.7-.5 1-.8l5.6 2.6c.2.1.4.4.2.6 0 .2-.2.3-.4.3zm-386.6-.2c-.3-.6-.8-1.3-1.5-1.7l-.4-.2 2.9-2.1c.1 1.1.4 2.1.6 2.9l-1.6 1.1zm369.2-7.3c.4-.3.7-.7 1-1.1l7.1 3.3h-.3l.3.9v.4l-8.1-3.5zm-20.7-16.8c-.3-.1-.7-.3-1-.5-.6-.4-1.3-.8-2.4-.8h-.6c-.2 0-.5.1-.7.2l-1.8-.7.1-.1c.3-.3.4-.7.5-1.1l6 2.6c-.1.1-.1.3-.1.4zm48.3-2.6h-.1l-32.6-10c-.2-.2-.3-.3-.5-.4.4-.2.9-.5 1.2-1.2l32.2 10.6c.3.1.4.4.3.6s-.2.4-.5.4zm-57.5-.9c-1-.6-2.3-.8-3.4-.9h-.2l-.2.1-1.1-.5c-.4-.8-.9-1.8-1.8-2.4l7.1 3c-.1.1-.1.2-.2.3s-.2.2-.2.4zm31.4-1.3c-.4-.1-.8-.3-1.2-.5-.6-.3-1.4-.7-2.4-.7-.3 0-.5 0-.8.1-.2.1-.5.1-.8.3l-2.1-.7c.1 0 .1-.1.2-.2.3-.4.4-.8.4-1.3l6.8 2.5c-.1.2-.1.4-.1.5zm-78.2-16.7l-.3.6-.2-1c-.1-.9-.3-1.8-.4-2.6L469 360c-.1 0-.2 0-.4-.1h-.3l-.2.1c-.4.2-.6.6-.8 1l-36.9-14.7zm68 13.5c-1.1-.7-2.6-.8-3.9-.8h-.2l-.2.1-1.3-.4c-.8-1.3-1.7-2.9-3.8-3h-.3l-.2.2c-.4.3-.6.7-.8 1.1l-41.6-14-.1-.3c-.2-1-.4-2-.6-2.9l53.3 19.2c-.1.1-.1.3-.2.4 0 .1-.1.2-.1.4zm38.5-2h-.1l-32.8-9c-.2-.2-.4-.3-.5-.4.4-.2.9-.5 1.2-1.2l32.5 9.7c.3.1.4.4.3.6s-.3.3-.6.3zm-37.7-3.6l-2.2-.6c0-.7.1-1.3.5-1.8l2.1.7c.1.1.1.3.2.4.2.5.4.9.5 1.3v.1l-1.1-.1zm-6.6-3.8c-.4-.1-.7-.2-1.1-.4-.6-.3-1.2-.6-2.1-.6-.3 0-.6 0-.9.1-.2.1-.4.1-.7.3l-1.9-.6c.3-.3.4-.8.4-1.2l6.2 2c.2.1.2.3.1.4zm70.2-1.2h-.1l-36.2-7.9c-.2-.2-.5-.3-.7-.4.5-.2 1-.6 1.3-1.5L563 348c.3.1.5.4.5.7-.2.3-.4.5-.7.5zm-61.7-1.3l-2.2-.5c0-.7.1-1.3.4-1.8l2.1.6c.1.1.1.3.2.4.2.5.4.9.5 1.3v.1l-1-.1zm19.8-7.8c0-.8 0-1.5.4-2.1l2.4.6c.1.2.2.3.3.5.3.5.5 1 .6 1.4l.1.2-1.1-.1v.1l-2.7-.6zm21.3-3.9h-.1l-33.5-6.2c-.2-.2-.4-.3-.7-.4l-.3-.1-.3.1h-.2l-1.3-.2v.1l-2.5-.5c0-.7 0-1.3.3-1.8l2.1.4c.1.2.5.8.5.8l1 .2c.1 0 .2.1.3.2l.8.9.6-1.1c.1-.1.1-.2.2-.4l33.2 6.9c.3.1.4.3.4.6-.1.3-.3.5-.5.5zm-41.1-8.4c-.4-.3-.9-.5-1.5-.5h-.6c-.1-.2-.2-.4-.4-.5l2.3.5c.1.2.2.4.2.5zm7.3-4.7s-.5-.1-1.4-.2c-.1-.4-.1-.7-.2-1.1l1.6.3c.3 0 .4.3.4.6 0 .2-.2.4-.4.4zm-6.1-1.6c-.4-.3-.8-.4-1.4-.4-.3 0-.5 0-.8.1-.1-.2-.2-.4-.4-.5l2.3.4c.1.1.2.2.3.4zm-12.2-1.4c-.3 0-.4-.1-.4-.1l-.5-.4-.5.4-8.6-1.3c-.3-.2-.6-.4-.9-.5-.2-.1-.4-.2-.5-.3-.2-.6-.7-1-1.1-1.3l14.9 2.7c-.2.3-.4.5-.7.6-.2 0-.5.1-.7.1-.3.1-.7.1-1 .1zm38.1-7c-.1-.4-.2-.9-.3-1.3l1.9.2c.3 0 .6.3.5.7 0 .3-.3.5-.6.5-.1 0-.6 0-1.5-.1zm-4.8-.5c0-.2-.1-.4-.2-.5l-.1-.2-.2-.1c-.3-.2-.8-.4-1.3-.4-.3 0-.7 0-1.1.1-.2-.3-.4-.5-.6-.7l2.7.3c.5.5.8 1 .9 1.5h-.1zm-24.6-2.5c-.3-.2-.7-.4-1-.5l-.6-.3c-.3-.8-.9-1.2-1.4-1.5h-.1l16.7 2c-.3.4-.5.7-.8.8-.3 0-.5.1-.8.1-.4.1-.9.2-1.2.2s-.3-.1-.3-.1l-.5-.4-.5.5-9.5-.8zm9.5-5.2c0-.9-.4-1.4-.6-1.7l-.1-.1 1.6.2-.1-.3 1.7.2s.1 0 .3.1l.2.2 34.9 3.3c.3 0 .5.3.4.5 0 .3-.2.5-.5.5l-37.8-2.9zm-29.8-2.2v-1h-.1c0-.1-.1-.4-.1-.4l-.2-.2c-.1 0-.1-.1-.2-.1l-1.5-1 2.1.2v-.2l16.1 1.5c-.2.3-.4.5-.6.7-.2 0-.5.1-.7.2-.4.1-.8.2-1.2.2h-.2l-.5-.4-.5.5-2.3-.2-.1.8v.2l-10-.8zm26.1.2c-.3-.2-.7-.3-1.1-.3-.3 0-.7.1-1.1.1-.1-.2-.3-.3-.4-.5l2.3.2c.1.2.2.4.3.5zm4.2-4.5c0-.9-.4-1.3-.7-1.7l-.1-.1 38.7 2.5c.3 0 .5.3.5.5 0 .3-.2.5-.5.5l-37.9-1.7zm19.9-12.1c-.1-.9-.5-1.5-.8-1.8-.1-.1-.1-.2-.2-.2l42.3.4c.3 0 .6.3.6.6s-.3.6-.6.6l-41.3.4zm-19.6-7c-.1-.7-.4-1.2-.7-1.5l-.2-.2 38.8-.8c.3 0 .5.2.5.5s-.2.5-.5.5l-37.9 1.5zm-44.1-3.6c-.6-1.1-1.5-1.7-2.8-1.8l2.7-.1c0 .4.1.9.3 1.2l.2.4 1.3.2-1.7.1zm2.5-.3c.3-.2.4-.5.6-.8l.3.4h5.4v.1l-6.3.4v-.1zm42.6-3.3v-.2c0-.1 0-.2-.1-.3.8 0 1.2-.1 1.2-.1.2 0 .4.2.4.5 0 .2-.1.3-.2.3l-1.3-.2zm-27.6-8.3c.3-.3.5-.6.6-1l.1.1.3.4h.5c1.8-.1 3.7-.2 5.5-.3 0 .1-.1.2-.1.2l-7.1.9.2-.3zm46.1-6.1c0-.1-.1-.2-.1-.3s-.1-.2-.1-.4c.9-.1 1.4-.1 1.4-.1.2 0 .5.2.5.5 0 .2-.1.4-.3.5l-1.4-.2zm-521-35.2c-.3-.1-.5-.4-.5-.7.1-.3.3-.5.6-.5h.1l71.4 15.5c0 .5-.2.8-.7 1.2-.3.3-.7.7-.9 1.2l-70-16.7zm121.9 15.4l.1-.4-13.2-4.3c-.1-.7-.3-1.5-.5-2.3l11.6 3.5c-.2.3-.4.8-.1 1.5l.1.2.2.2c.3.3.8.4 1.2.4.6 0 1.1-.2 1.4-.6.2-.2.3-.5.4-.8l4.4 1.3h-.6c-.6 0-1.1.2-1.6.4l-2 .9c-.1.1-1.1 0-1.4 0zm-96-24.2c-.3-.1-.4-.4-.3-.6s.3-.4.5-.4h.1l64.8 17.8c0 .4-.2.6-.7 1-.3.3-.6.6-.9 1.1l-63.5-18.9zm35.9 4.1s-.1 0-.2-.2l-.2-.2-33.3-11c-.3-.1-.4-.4-.3-.6s.3-.3.5-.3h.1l64.2 19.7v.2l-.2.7c-.3.2-.7.4-1 .6h-.1l-.2.2c-.1.1-.1.2-.2.2l-.3-.1-.2.1-28.6-9.3zm52.1 1.2c0-.7-.1-1.5-.3-2.3l11.2 4.5c-.2.3-.4.7-.3 1.5l.1.3.2.2c.3.3.9.5 1.4.5s1-.2 1.3-.5c.2-.2.3-.4.4-.7l4.3 1.7h-.7c-1.2 0-2.2.4-2.8 1.2l-14.8-6.4zm-68.7-14.2c-.3-.1-.5-.5-.4-.8.1-.2.3-.4.6-.4h.2L86 214.7h-.1c-.4.2-.8.4-1.2.7-.4.2-.7.3-1.1.5l-30.8-11.1zm23.1-5.1c-.2-.1-.4-.4-.3-.6s.3-.3.5-.3h.2l29.4 11.7c-.4.2-.7.3-1.1.5-.3.1-.6.3-1 .4l-27.7-11.7zm26.8 5.7l.2-.6-2.5-1.1-4.5-2.1.1.8-50.2-22.9c-.2-.1-.4-.4-.2-.7.1-.2.2-.3.4-.3h.2l49.5 21.4.4.3 11.8 5.1c-.4.1-.7.3-1.1.5-.3.1-.7.2-1 .4l-.9-.4-.4.5-1.8-.9zm327.5.3c0-.7-.1-1.4-.4-2.1l7.5-4.1v.2l.1.2c.3.5.8.8 1.3 1 .1 0 .1.1.2.1l-8.7 5v-.3zm15.2-8.3c-.2-.2-.2-.2-.2-.3 0-.2 0-.3.1-.3.1-.1.4-.2.9-.3-.1.2-.1.4-.1.6l-.7.3zm-358.3-6.1c0-.3.1-.6.3-.9v1l-.3-.1zm350.8-1c-.1-.7-.2-1.6-.5-2.2l8.1-5v.3l.2.2c.4.5.9.8 1.4 1 .1 0 .2.1.3.1l-9.4 6.1-.1-.5zM108.1 189c0-.2.1-.3.1-.5v.6l-.1-.1zm-79.6-26.7c-.3-.1-.4-.5-.3-.8.1-.2.3-.3.5-.3.1 0 .2 0 .3.1l53.1 24.9c.1.9.1 1.8.3 2.9l-53.9-26.8zm27.2-2.8c-.2-.1-.3-.4-.2-.7.1-.2.3-.3.4-.3s.2 0 .2.1l47.5 25.5c0 .7 0 1.6.1 2.5l-48-27.1zm55.3 24.4c0-.2.1-.3.2-.5v.6l-.2-.1zm359.3-1.4h-.3l-.6-.3 13.3-7.2c.1 0 .2-.1.2-.1.2 0 .4.1.4.3.1.2 0 .5-.2.7l-9.2 5.3c-.3-.1-.6-.1-.8-.1-1 0-1.6.6-2 1-.3.3-.5.4-.8.4zm-366.8-3.1v.3l-2.9-1.7-.1-.3-.3-.2-2.1-1.3-.2.2-8.2-4.9s-.1-.1-.2-.3l-.1-.3-30-18.1c-.2-.1-.3-.4-.2-.7.1-.2.3-.2.4-.2s.2 0 .2.1l46.7 26.9v2.5l-3-2zm350.4 1c-.2-.2-.3-.3-.3-.4 0-.3 0-.4.1-.4.2-.2.6-.3 1.1-.4-.1.2-.1.5-.1.7l-.8.5zm-268.3-4.1h.9l.1 1.2-1-1.2zm223.2-.4c.8-1.1 1.1-2.5 1.4-3.7.1-.2.1-.5.2-.7l4.1-3.6h.6l.1-.4.2.2c.5.3 1.1.6 1.7.6l-8.3 7.6zm-249.7-29.8h1.2l-.4-1.1v-.1c-.2-.9-.7-1.1-1.1-1.1h-1.1l.3.9-24.2-27.5v-.1c.3-.2.6-.3 1-.4l46.3 50.4.6-.5.1 1.2c.1.6.1 1.3.2 1.9.1.9.2 1.7.3 2.5l-23.2-26.1zm-19.3-4.6h.2l1.2-.1-.4-1v-.1c-.2-.7-.6-1.1-1.1-1.1h-.1l-1.1.1.4 1v.2l-28.1-28.6s-.1-.1-.1-.2c.4-.2.7-.4 1.2-.5l54.1 52.9c.1.6.2 1.3.3 1.9.2 1 .4 2 .5 2.9l-27-27.4zm163.4 26.8l.1-.5c0 .2 0 .3-.1.5zm156.9-1.2l-.2-.2 12.7-8.4c.1-.1.2-.1.3-.1h.3l.3-.1 17.7-11.6h.1l.2.1h.2c.7 0 1.1-.4 1.5-.7.3-.2.4-.3.5-.3h.2l.3.3-27.4 18.9.3-1.4-2.5 1.8c-.2 0-.4-.1-.6-.1-.4 0-.7.1-1 .2l-.4.2-.1.4c0 .2-.1.5-.2.7-.2.1-.5.2-.8.2-.7.2-1.6.5-2.4.6l1-.5zm-40.4-1.2c-.1-.6-.3-1.1-.7-1.5l-.2-.2h-.2l9-7.9c-.2.4-.4 1-.4 1.7v.2l.1.2c.1.1.1.2.2.4l-7.8 7.1zm-12.7-.6c.2-.4.3-1 .3-1.6-.1-.7-.4-1.3-.9-1.6l-.1-.1 1-.9.1.3h.8c4.8 0 5.5-3.5 6-6.3.1-.3.1-.5.2-.8l4.3-4.2h.6l.1-.5.4.2c.6.4 1.3.6 2 .6L407 165.3zm-296.6-2.7c-.1-.5.1-.8.3-1.2 0 0 0-.1.1-.1l2.3 1.6v1.6l-2.7-1.9zm-22.4-.1c-.2-.6 0-.9.3-1.4 0 0 .1-.1.1-.2l2.7 1.7v.4c0 .5.1 1 .1 1.5l-3.2-2zm392.1.3h-.3c-.3-.1-.5-.2-.8-.4l14.1-8.7c.1-.1.2-.1.3-.1.2 0 .4.1.5.3.2.3.1.7-.2.8L484 161c-.3-.1-.5-.1-.8-.1-1.1 0-1.8.7-2.2 1.2s-.6.7-.9.7zm-21.1-2.4v.2c-.1.4-.1.8-.2 1.2-.2.1-.5.2-.8.3-.7.3-1.5.5-2.3.7l3.3-2.4zm-358.8-5.2c-.2-.2-.3-.5-.1-.7.1-.1.2-.2.4-.2.1 0 .2 0 .3.1l3.5 2.4c.2 1.1 1 1.2 1.3 1.2h.4l1.3.9c-.3.3-.4.6-.6 1l-6.5-4.7zm-23.6-.1c-.3-.2-.4-.6-.2-.8.1-.2.3-.3.5-.3.1 0 .2 0 .3.1l3.9 2.4c.2 1.1 1 1.3 1.3 1.3.2 0 .4 0 .6-.1l1.6 1c-.3.4-.5.8-.6 1.3l-7.4-4.9zm386.6 4.7c.1-.7 0-1.5-.4-2.1l24.3-16.9h.1l.2.1h.2c.7-.1 1.1-.4 1.5-.7.3-.2.4-.3.5-.3h.2l.3.3-26.9 19.6zm-29.1-1.5l-.1.1c-.2.3-.5.4-.8.6l.9-.7zm1.8.5c-.3-.1-.5-.3-.7-.5l-.5-.5 2.6-2.1c.5.3 1.1.4 1.7.5l-3.1 2.6zm-331.8-8.9c-.2-.2-.3-.5-.1-.7.1-.1.2-.2.4-.2.1 0 .2 0 .3.1l3.4 2.5c.2 1.2 1 1.3 1.3 1.3h.4l1.3 1c-.3.3-.5.6-.6 1l-6.4-5zm326.2 4.1l-.1.1c-.2.3-.5.4-.8.6l.9-.7zm1.9.4c-.3-.1-.6-.3-.8-.5l-.5-.5 2.5-2.2c.5.3 1.1.4 1.7.5l-2.9 2.7zm11.1-2c-.5-.2-1.1-.4-1.6-.4h-.2l3.8-3.2h-1.1l3.4-2.8-.1.9 4.2-3.5-.5-.4 22.8-18.9h.5c.7-.1 1.1-.5 1.4-.8s.4-.4.6-.4h.2l.3.3-25.2 21.8-1.5 1.1-7 6.3zm-348.6-8.8v-.8c-.2-.6-.7-1.1-1.3-1.3l-.9-.3v.5l-17-13c-.2-.2-.3-.5-.1-.7.1-.1.2-.2.4-.2.1 0 .2 0 .3.1l26 19c-.2.2-.4.4-.5.7l-.1.2.1.2c.1.3.2.6.3.8l-7.2-5.2zm344.7 4.2c-.5-.2-1-.3-1.5-.3h-.3l10.5-9.2.1.1c.2.2.5.4.7.7l-9.5 8.7zm-15.3 0c-.1-.7-.4-1.3-.8-1.6l-.2-.2h-.4l9.8-9.6c-.3.5-.6 1.2-.5 2.2v.2l.1.2c.1.2.2.3.3.4l-8.3 8.4zm42.5-8.6v.3c0 .5-.1.9-.2 1.3-.3.1-.6.2-.8.3-.9.4-1.9.8-2.8 1l3.8-2.9zm4.3-.5c0-.9 0-1.8-.6-2.4l25.5-19.9h.2l.2.1h.2c.7-.1 1.2-.5 1.5-.9.3-.3.4-.4.7-.4h.3c.2.1.3.2.4.4l-28.4 23.1zm-301.3-13.8c.8-.3 1-.9 1.2-1.4.2-.4.2-.4.4-.4l1.5 2.1c0 1.2.6 2 1.7 2.4l5.9 8.1c-.4-.1-.7-.2-1.2-.2-.6 0-1.1.1-1.7.2-.1 0-.2 0-.3.1l-7.5-10.9zm265.7 8.8l-.4.6c-.2.4-.6.6-1 .8-.1.1-.3.2-.4.3l1.8-1.7zm1.8.9c-.3-.1-.7-.3-.9-.5l-.7-.6 2.7-2.6c.6.3 1.3.4 2.1.5l-3.2 3.2zm-329.6-6.7c.1-.2.1-.5 0-.8-.1-.6-.6-1.2-1.2-1.4l-.9-.3-.1.5-15.9-14.4c-.2-.2-.2-.5 0-.7.1-.1.3-.2.4-.2s.2 0 .3.1l24.3 21.2c-.2.2-.4.4-.6.7l-.1.2v.2c.1.3.2.6.3.8l-6.5-5.9zm77.3 4.7c-.4-.2-.8-.2-1.3-.2s-1.1.1-1.6.2h-.2l-4-6.2-.1.2-.8-1.3.2-.1-2.5-3.8c.1 0 .1 0 .1-.1l1.4-.6-1.2-.8c-.1-.1-.2-.1-.2-.2.1-.1.1-.2.2-.4l.6.8.7-.5h.1l1.5 2.1c0 1.2.6 2 1.7 2.5l5.4 8.4zm31.8-8.7c.2 0 .5.1.7.1.5.1 1.1.2 1.7.2.3 0 .5 0 .7-.1l1.2 2.9c-.2.1-.4.2-.6.4l-.1.1-.1.1c-.5 1.1-.3 1.9-.1 2.7.1.4.2.8.3 1.4-.1.1-.2.2-.4.3 0 0-.1 0-.1.1l-3.2-8.2zM82.8 125c.1-.3.1-.6 0-.9-.2-.7-.7-1.2-1.3-1.4l-.9-.3-.1.6-18.2-14.8c-.3-.2-.3-.6-.1-.9.1-.1.3-.2.5-.2.1 0 .2 0 .4.1l27.7 21.6c-.3.2-.5.4-.6.8l-.1.2.1.2c.1.3.2.6.3.8.1.1.1.2.1.3l-7.8-6.1zm67.3-7.1c.9-.3 1.1-1.1 1.3-1.5.2-.5.2-.5.4-.6l1.8 2.2c.1 1.3.8 2.1 2 2.5l7 8.6c-.4-.2-.8-.2-1.3-.2-.7 0-1.4.2-2.1.4-.1 0-.2.1-.3.1l-8.8-11.5zm-38 4.9c.1-.2.1-.5 0-.8-.1-.6-.5-1.2-1.1-1.4l-.9-.4-.1.5-15.4-14.9c-.2-.2-.2-.5 0-.7.1-.1.3-.2.4-.2s.2 0 .3.1l23.7 22c-.2.2-.4.4-.6.7l-.1.2v.2c.1.3.2.6.2.8l-6.4-6.1zm332.4 4.2c-.5-.2-1-.3-1.4-.3-.3 0-.5 0-.7.1l11-10.8.2.2c.3.2.6.5.8.7l-9.9 10.1zm-13.5-4.2c-.7 0-1.4 0-2.1-.2l7.9-8.7c.1 0 .3.1.4.1.4.1.9.3 1.1.4 0 0 .1 0 .1.1l-2.6 3c-.9 0-1.6.5-2 1.3l-.1.2v.2c0 .2 0 .4.1.6l-2.6 3h-.2zM201 114c.3 0 .6 0 .9.1.5 0 1 .1 1.4.1.5 0 .9 0 1.2-.1l1.6 3.2c-.2.1-.5.3-.7.5l-.1.1-.1.1c-.5 1.2-.2 2.1.1 2.9.2.5.3.9.4 1.5-.1.1-.2.2-.4.3-.1 0-.1.1-.2.1L201 114zm14.5 4.6c-.5-.8-1-1.6-1.5-2.3-.3-.5-.7-1-1-1.5l-13.5-33.4c.6-.3 1.2-.6 1.6-.9l16 37.3c-.5.4-1 .7-1.6.8zm-24.8-1.8h.4c.4 0 .7 0 1.1.1-.4.3-.6.8-.8 1.2l-.7-1.3zm29.7-.1c-.4-.8-.9-1.6-1.4-2.3l-.9-1.5-3.2-8.7-.1.2-4-10.6h.2l-.3-1-1-2.8-.3-.1-5.8-15.5c-.1-.2 0-.4.1-.5l.5-.5 2.2 5.4.9-.5L222 116c-.4.3-1 .5-1.6.7zm21.9-.3s-.1 0-.3-.2-.3-.4-.4-.6c.3 0 .6-.1.9-.1l.2.7c-.1.1-.1.2-.2.2h-.2zm-82.8-6.1l.3-.2c.5-.3.9-.6 1.3-.9l3.8 5.2c-.5.5-.8 1.1-1 1.6-.1.1-.1.2-.2.4l-4.2-6.1zm97.3 3.1s-.1 0-.3-.1c-.2-.2-.3-.4-.4-.7h.2c.2 0 .4 0 .7-.1l.1.7-.2.2c0-.1-.1 0-.1 0zm-92.1-6.7l1.2-.8c.1-.1.3-.2.4-.3l3.6 5.3c-.5.5-.8 1-1.1 1.6-.1.1-.1.2-.2.4l-3.9-6.2zm24.9 4.9c-.5-.2-.7-.3-.8-.5l.3-.3.5.8zm261.6-.9c-.3-.4-.7-.7-1.1-.9l14.6-15.1c.1-.1.3-.2.4-.2s.2 0 .3.1c.2.2.2.5 0 .7l-14.2 15.4zm-42.9-.7l7.1-9.8c.1-.1.2-.2.4-.2.1 0 .2 0 .3.1.2.2.3.5.1.7l-6.5 9.4c-.5-.1-1-.2-1.4-.2zm-235.8-2.1c.3 0 .6-.1 1-.1h1c-.5.4-.8 1-1 1.5l-1-1.4zm-34.4-5.3l.1.1.3-.2c.5-.3 1-.7 1.4-1.1l4.5 5.5v.1c-.5.5-.7 1.2-1 1.8-.1.2-.1.3-.2.5l-5.1-6.7zm61.5 6c-.6-.9-1.2-1.7-1.8-2.4l-1.2-1.5L180 69.1c.7-.4 1.3-.8 1.8-1.1l19.6 39.7c-.5.3-1.1.7-1.8.9zm-35.4-2.6l-.1.3-1.6-2.4.4.1-.2-.3h1.1l.9 1.3-.2 1.3-.3-.3zm281.8-.1c-.3-.4-.7-.7-1.1-.9L459 89.5c.1-.1.3-.2.4-.2s.2 0 .3.1c.2.2.2.5 0 .7L446 105.9zm-290.7-1.6c0-1.6-.5-2.7-1-3.7-.3-.7-.6-1.2-.6-1.6l2.3 3.1c-.3.7-.4 1.6-.5 2.4l-.2-.2zm15.9-1.9c-.6-.2-.8-.3-1-.6.1-.2.2-.3.3-.5l.8 1.2c0-.1-.1-.1-.1-.1zm-10.6-1.9c.1-1.6-.5-2.8-.9-3.7-.3-.7-.5-1.2-.6-1.6l2.2 3.2c-.3.7-.5 1.5-.6 2.4l-.1-.3zm83.6-.1s-.2 0-.3-.2c-.2-.2-.3-.5-.5-.8h.1c.3 0 .6 0 1-.1l.2.9c-.1.2-.1.2-.2.2-.2-.1-.3 0-.3 0zm188.6-.1c-.5 0-1 0-1.4-.1l8.2-10c.2 0 .3.1.5.1.5.1 1 .2 1.3.4l.1.1s.1 0 .1.1l-2.7 3.5c-1 .1-1.7.6-2 1.5l-.1.2v.2c0 .2.1.5.2.6l-2.7 3.5c-.6-.1-1-.1-1.5-.1zM227.2 88c.2-.1.5-.2.8-.4l.4-.3-.1-.5v-.2l3.2 10.7-.9.3-.6.2v.3L227.2 88zm-93.9 8.4c0-1.7-.7-2.9-1.3-3.9-.5-.8-.8-1.4-.8-2L134 94c-.3.9-.4 1.9-.4 2.8l-.3-.4zm44.9-2.5c.4.1.8.1 1.2.1h.2l.8 1.4c-.1.2-.1.4-.1.5-.2.2-.3.5-.5.7l-1.6-2.7zm56.3-1.4l-.6.2-8.9-35.6h.1c.3 0 .9-.1 1.4-.3l3.6 13.3.1.4.5 1.9.1.1 5.4 19.7h-.2l.4 1.2.6 2.4-.9.3-.6.1v.3l-1-4zm195.7.4c-.4-.3-.8-.6-1.2-.8l12.8-16.7c.1-.1.2-.2.4-.2.1 0 .2 0 .3.1.2.2.3.5.1.7l-12.4 16.9zM244.6 52.8h.2c.3 0 .9 0 1.4-.2l2.5 13.5c-.2.3-.5.8-.4 1.5v.2l.1.1c.2.3.5.5.7.7l3.7 20.2h-.7c-.5 0-1.1.1-1.6.2l-5.9-36.2zm165.4 35c-.6 0-1.1-.1-1.7-.1l7.1-11.1c.1-.2.3-.3.5-.3.1 0 .2 0 .3.1.3.2.4.6.2.8L410 87.8zm-252.4-4.1c.3 0 .7.1 1.1.1h.6l1 1.5c0 .2-.1.4-.1.6-.2.3-.3.6-.5.8 0 0 0 .1-.1.1l-2-3.1zm70.5 2.3c-.3-.9-1-1.5-2-1.9l-1.8-6.4c.2.2.4.5.6.7.4.4.7.7.9 1.2v.2c.1.2.2.4.3.7.1.2.2.5.3.7l1.7 4.8zm-17.7-11.5c.3-.1.6-.2.9-.5l.4-.3-.1-.5c-.3-1.4-1.2-2.3-2.5-2.8l-2.5-7.2c.3.4.6.7 1 .9.5.4.9.8 1.1 1.3v.2c.1.2.3.5.4.7.1.3.3.5.4.7l6.3 17.4c-.4.2-.7.3-1 .4l-.6.2v.7l-3.8-11.2zm-28.9 9.2c-.7-.2-1.5-.4-2.2-.5l-15.2-30c-.1-.2 0-.5.2-.7.1 0 .1-.1.2-.1.2 0 .4.1.5.3l16.5 31zm267.7-2.6c-.4-.4-.9-.7-1.4-1l14.5-17.8c.1-.1.3-.2.5-.2.1 0 .2 0 .4.1.3.2.3.6.1.9l-14.1 18zM199 75.6c-.7-.3-1.4-.5-2.1-.7l-12.6-31.2c-.1-.3 0-.5.3-.6h.2c.2 0 .4.1.5.3L199 75.6zm22.6-7.4c-.1-.3.1-.5.3-.6h.1c.2 0 .4.2.5.4l1.8 5.9c-.2.1-.3.2-.5.3l-.5.2v.2l-1.7-6.4zm5.7-33h.2c.4 0 1-.1 1.5-.3l3.5 14.6c-.2.3-.5.9-.3 1.6v.2l.1.1c.2.3.5.5.8.7l5.2 21.8h-.5c-.7 0-1.5.1-2.2.3l-8.3-39zm-23.6 37.3l.1.2-.8-.2L191.3 41c-.1-.3 0-.5.3-.6h.2c.2 0 .4.1.5.3l12.8 32.6-1.4-.8zm-24.4-9.7c-.8-.3-1.7-.5-2.5-.6l-15.5-33.1c-.1-.3 0-.7.3-.8.1 0 .2-.1.3-.1.2 0 .4.1.5.3l16.9 34.3zm24-9.4c-.1-.3.1-.7.4-.8h.2c.3 0 .5.2.6.4l2.3 6.4c-.2.1-.3.3-.5.3l-.5.2v.6l-2.5-7.1zm15.5-21.3c-.1-.2 0-.4.2-.5l.5 3.4.6.1h.5l5.2 19.2c-.5.1-1 .3-1.2.7l-.1.1-5.7-23zm21.7-4.8c0-.2.1-.4.2-.5l.2 3.5.6.1c.2 0 .3.1.5.1l3.6 19.6c-.5 0-1 .2-1.3.6v.1l-3.8-23.5zm7.6-1.2c0-.2.1-.4.3-.5l.1 3.5.6.1c.2 0 .3.1.5.1l3 19.7c-.5 0-1 .2-1.4.6l-3.1-23.5zM221.3 7.9c-.1-.3.1-.6.4-.7v.1l.5 3.7.6.1h.5l5.1 21.2c-.6 0-1.1.3-1.4.7-.1.1-.1.2-.2.2l-5.5-25.3z"/></svg>
